<?xml version="1.0" encoding="UTF-8"?>
<svg id="Layer_1" data-name="Layer 1" xmlns="http://www.w3.org/2000/svg" viewBox="0 0 85.56 28.64">
  <defs>
    <style>
      .cls-1 {
        fill: #fff;
      }

      .cls-2 {
        fill: #37b34a;
      }

      .cls-3 {
        fill: #a18043;
      }

      .cls-4 {
        fill: #cb5027;
      }

      .cls-5 {
        fill: #009345;
      }

      .cls-6 {
        fill: #e5cb80;
      }

      .cls-7 {
        fill: none;
      }

      .cls-8 {
        fill: #a2803d;
      }

      .cls-9 {
        fill: #f2eeee;
      }

      .cls-10 {
        fill: #f7971d;
      }

      .cls-11 {
        fill: #f3e5f0;
      }
    </style>
  </defs>
  <path class="cls-5" d="M32.23,21.3h.37v.34c0,.28-.01,.56-.36,.56-.27,0-.38-.15-.38-.39v-2.17c0-.29,.08-.46,.4-.46,.27,0,.32,.19,.32,.57v.24h1.03v-.33c0-.89-.52-1.27-1.4-1.27-.94,0-1.38,.44-1.38,1.4v1.8c0,.79,.28,1.4,1.15,1.4,.44,0,.68-.12,.89-.49h.01l.05,.39h.7v-2.38h-1.4v.79Z"/>
  <path class="cls-5" d="M36.85,21.29c-.02-.3-.22-.5-.51-.57h0c.43-.21,.54-.54,.54-1.01,0-.87-.42-1.21-1.26-1.21h-1.5v4.38h1.03v-1.73h.34c.24,.02,.32,.19,.35,.46,.03,.27,0,.63,.02,1.02,0,.09,.03,.17,.06,.25h1.12v-.06s-.08-.09-.1-.15c-.06-.28-.06-1.03-.09-1.38Zm-1.35-.92h-.35v-1.07c.5-.01,.72,.01,.72,.53,0,.27-.07,.54-.37,.54Z"/>
  <polygon class="cls-5" points="38.42 21.07 39.71 21.07 39.71 20.19 38.42 20.19 38.42 19.38 39.75 19.38 39.75 18.51 37.4 18.51 37.4 22.89 39.82 22.89 39.82 22.01 38.42 22.01 38.42 21.07"/>
  <polygon class="cls-5" points="41.34 21.07 42.63 21.07 42.63 20.19 41.34 20.19 41.34 19.38 42.67 19.38 42.67 18.51 40.32 18.51 40.32 22.89 42.74 22.89 42.74 22.01 41.34 22.01 41.34 21.07"/>
  <polygon class="cls-5" points="45.09 20.96 45.07 20.96 44.28 18.51 43.22 18.51 43.22 22.89 44.19 22.89 44.1 20.45 44.11 20.44 44.91 22.89 45.96 22.89 45.96 18.51 44.99 18.51 45.09 20.96"/>
  <path class="cls-5" d="M49.2,18.51h-1.22v4.38h1.03v-1.71c.39-.02,.8,.04,1.16-.14,.47-.22,.58-.75,.58-1.22,0-.36-.05-.68-.29-.95-.29-.33-.86-.36-1.26-.36Zm.39,1.78c-.16,.13-.39,.1-.58,.11v-1.1h.11c.16,0,.3,0,.4,.04,.18,.08,.19,.34,.19,.51,0,.15-.02,.33-.13,.44Z"/>
  <path class="cls-5" d="M52.55,18.4c-.9,0-1.4,.47-1.4,1.31v1.78c0,.99,.36,1.5,1.4,1.5s1.38-.51,1.38-1.5v-1.78c0-.84-.48-1.31-1.38-1.31Zm.36,3.18c0,.25-.02,.62-.36,.62s-.37-.37-.37-.62v-1.8c0-.27,.04-.59,.37-.59s.36,.32,.36,.59v1.8Z"/>
  <polygon class="cls-5" points="57.35 21.58 57.34 21.58 56.95 18.51 55.95 18.51 55.54 21.57 55.53 21.59 55.22 18.51 54.22 18.51 54.96 22.89 56.1 22.89 56.44 19.8 56.45 19.8 56.76 22.89 57.92 22.89 58.65 18.51 57.68 18.51 57.35 21.58"/>
  <polygon class="cls-5" points="60 21.07 61.29 21.07 61.29 20.19 60 20.19 60 19.38 61.33 19.38 61.33 18.51 58.98 18.51 58.98 22.89 61.4 22.89 61.4 22.01 60 22.01 60 21.07"/>
  <path class="cls-5" d="M64.6,21.29c-.02-.3-.22-.5-.51-.57h0c.43-.21,.54-.54,.54-1.01,0-.87-.42-1.21-1.26-1.21h-1.5v4.38h1.03v-1.73h.34c.24,.02,.32,.19,.35,.46,.03,.27,0,.63,.02,1.02,0,.09,.03,.17,.06,.25h1.12v-.06s-.08-.09-.1-.15c-.06-.28-.06-1.03-.09-1.38Zm-1.35-.92h-.35v-1.07c.5-.01,.72,.01,.72,.53,0,.27-.07,.54-.37,.54Z"/>
  <polygon class="cls-5" points="67.58 18.51 66.55 18.51 66.55 22.89 68.83 22.89 68.83 22.01 67.58 22.01 67.58 18.51"/>
  <rect class="cls-5" x="69.22" y="18.51" width="1.03" height="4.38"/>
  <polygon class="cls-5" points="72.83 21.1 72.81 21.1 72.28 18.51 70.84 18.51 70.84 22.89 71.81 22.89 71.72 19.45 71.73 19.45 72.44 22.89 73.2 22.89 73.92 19.45 73.94 19.45 73.83 22.89 74.81 22.89 74.81 18.51 73.38 18.51 72.83 21.1"/>
  <rect class="cls-5" x="75.39" y="18.51" width="1.03" height="4.38"/>
  <polygon class="cls-5" points="76.84 19.38 77.65 19.38 77.65 22.89 78.68 22.89 78.68 19.38 79.51 19.38 79.51 18.51 76.84 18.51 76.84 19.38"/>
  <polygon class="cls-5" points="80.93 21.07 82.22 21.07 82.22 20.19 80.93 20.19 80.93 19.38 82.26 19.38 82.26 18.51 79.9 18.51 79.9 22.89 82.33 22.89 82.33 22.01 80.93 22.01 80.93 21.07"/>
  <path class="cls-5" d="M85.09,18.71c-.33-.19-.78-.2-1.16-.2h-1.12v4.38h1.38c.32,0,.64-.03,.91-.2,.3-.19,.43-.51,.44-.95v-1.94c0-.42-.06-.85-.46-1.08Zm-1.24,3.39v-2.8c.5,.01,.67,.04,.68,.55v1.43c.02,.58,.01,.86-.68,.82Z"/>
  <g>
    <path class="cls-1" d="M59.13,12.37h-1.52l.78-1h3.67v1h-1.7v4.32h-1.23v-4.32Z"/>
    <path class="cls-1" d="M66.12,16.69l-1.03-1.48h-1.13v1.48h-1.23v-5.33h2.31c1.42,0,2.31,.74,2.31,1.93,0,.8-.4,1.39-1.1,1.68l1.2,1.71h-1.32Zm-1.16-4.32h-1v1.86h1c.75,0,1.13-.35,1.13-.93s-.38-.93-1.13-.93Z"/>
    <path class="cls-1" d="M72.45,15.7v.99h-4.13v-5.33h4.03v.99h-2.8v1.16h2.47v.96h-2.47v1.23h2.9Z"/>
    <path class="cls-1" d="M78.28,16.69v-3.2s-1.58,2.63-1.58,2.63h-.56l-1.56-2.56v3.13h-1.16v-5.33h1.02l1.99,3.31,1.96-3.31h1.01l.02,5.33h-1.16Z"/>
    <path class="cls-1" d="M84.83,15.7v.99h-4.13v-5.33h4.03v.99h-2.8v1.16h2.47v.96h-2.47v1.23h2.9Z"/>
    <polygon class="cls-4" points="55.87 13.84 57.92 11.37 56.57 11.37 56.43 11.52 55.19 13.03 53.8 11.37 52.45 11.37 54.5 13.84 52.5 16.25 52.49 16.26 52.18 16.64 53.54 16.64 55.18 14.66 56.85 16.64 58.21 16.64 55.87 13.84"/>
  </g>
  <g>
    <g>
      <path class="cls-7" d="M18.53,11.25c.06,.08,.12,.15,.16,.19,.09,.09,.14,.1,.29,.1,.06,0,.13,0,.22,0,.34,0,.56-.04,.49-.26-.03-.08-.07-.14-.12-.19-.02-.02-.03-.03-.05-.04-.06-.05-.11-.07-.11-.07l-.2-.02-.58-.05h0s-.04,0-.04,0l-.26-.02h-.05s.02,.02,.04,.06c.02,.02,.03,.05,.06,.08,.05,.07,.11,.15,.17,.23Z"/>
      <polygon class="cls-7" points="27.42 4.53 27.38 4.54 27.35 4.55 27.35 4.55 27.38 4.54 27.42 4.53"/>
      <path class="cls-1" d="M13.42,1.22c.15-.01,.3-.02,.46-.02,2.47-.08,4.81,.53,6.83,1.66,.06-.42,.28-.79,.61-1.02C19.12,.59,16.55-.08,13.84,0c-.2,0-.39,.02-.59,.03,.13,.21,.21,.46,.22,.73,0,.16-.01,.31-.05,.45Z"/>
      <path class="cls-4" d="M11.93,1.41s.05,0,.07,0c.08,0,.16-.02,.23-.05,.21-.1,.35-.31,.34-.55-.01-.32-.28-.58-.61-.57-.32,.01-.58,.28-.57,.61,.01,.3,.24,.54,.53,.56Z"/>
      <path class="cls-4" d="M22.21,3.64c.32-.01,.58-.28,.57-.61,0-.14-.06-.27-.14-.36-.06-.07-.15-.13-.24-.17-.07-.03-.15-.04-.23-.04-.32,.01-.58,.28-.57,.61,.01,.32,.28,.58,.61,.57Z"/>
      <path class="cls-1" d="M19.53,5.51c-.32-.19-.66-.37-1.01-.52,0,.27-.07,.52-.2,.74l1.21-.21Z"/>
      <path class="cls-1" d="M13.98,4.08c-2.23,.07-4.27,.86-5.92,2.14-.24,.18-.47,.38-.69,.58-1.67,1.54-2.82,3.63-3.18,5.97,.15-.06,.32-.1,.49-.1,.25,0,.5,.05,.71,.15,.7-4.16,4.25-7.4,8.62-7.55,.54-.02,1.06,.01,1.58,.08-.03-.11-.05-.22-.05-.34-.01-.31,.07-.6,.23-.84-.58-.08-1.18-.12-1.79-.1Z"/>
      <path class="cls-1" d="M5.64,16.89c-.13-.44-.23-.9-.29-1.36-.17,.08-.36,.13-.56,.13-.23,0-.44-.04-.63-.12,.07,.6,.2,1.19,.37,1.75l1.12-.4Z"/>
      <path class="cls-1" d="M13.31,24.5s0,0,0,0h-.01s0,0,0,0c-.37-.2-.67-.36-.88-.48-.94-.61-1.44-1.29-1.44-1.29-1.77-.71-3.28-1.97-4.29-3.57l-1.35,.06c.67,1.22,1.58,2.3,2.66,3.15,.37,.29,.77,.56,1.18,.8,1.25,.73,2.67,1.21,4.18,1.35,0,0,0,0,.01,0-.02,0-.03-.01-.03-.01h-.02Z"/>
      <path class="cls-1" d="M24.88,20.55c1.15-1.94,1.78-4.22,1.7-6.64-.03-.95-.17-1.88-.41-2.76l-.31,.1s-.31,.1-.83,.26c.21,.78,.33,1.6,.36,2.44,.07,2.16-.48,4.19-1.5,5.93,.41,.08,.77,.33,.99,.67Z"/>
      <path class="cls-1" d="M7.52,4.12c.36,.2,.62,.54,.72,.95,1.64-1.08,3.6-1.74,5.7-1.81,.95-.03,1.88,.06,2.77,.25,.47,.1,.92,.24,1.37,.4,.94,.34,1.83,.81,2.64,1.38l1.58-.28c-2.25-1.93-5.2-3.06-8.39-2.95-.44,.01-.88,.05-1.3,.11-.25,.04-.5,.08-.75,.13-1.58,.32-3.04,.95-4.34,1.81Z"/>
      <path class="cls-1" d="M22.6,23.36c.2-.19,.4-.38,.59-.58-.4-.12-.73-.4-.91-.77-.15,.16-.31,.31-.48,.46,.35,.22,.62,.53,.79,.89Z"/>
      <path class="cls-1" d="M8.58,25.15c1.83,.98,3.94,1.5,6.16,1.43,.53-.02,1.04-.07,1.55-.15-.32-.39-.75-.75-1.28-1.06-.1,0-.2,.01-.3,.01-1.94,.07-3.78-.38-5.4-1.2-.09,.41-.36,.76-.72,.97Z"/>
      <path class="cls-1" d="M6.21,6.8c-.38-.16-.68-.48-.82-.87-2.16,2.3-3.44,5.41-3.32,8.8,.04,1.13,.23,2.21,.55,3.24l1.12-.4c-.28-.91-.45-1.88-.48-2.87,0-.12,0-.24,0-.36,0-.13,0-.27,0-.4,.09-2.74,1.19-5.25,2.95-7.14Z"/>
      <path class="cls-1" d="M26.4,6.63l-1.02,.62c1.23,1.92,1.98,4.19,2.07,6.63,.1,3.04-.85,5.88-2.52,8.17-.09,.13-.19,.25-.28,.37-.55,.7-1.17,1.34-1.85,1.92-.03,.55-.26,1.27-1.02,2.13,0,.02,0,.05,0,.07,4.26-2.61,7.04-7.37,6.86-12.71-.09-2.66-.9-5.12-2.24-7.21Z"/>
      <path class="cls-1" d="M24.81,4.58c-.37-.4-.76-.78-1.18-1.13-.11,.4-.39,.74-.75,.93,.17,.15,.34,.3,.5,.46l1.43-.25Z"/>
      <path class="cls-1" d="M21.76,25.86c-.04,.05-.08,.11-.13,.16,0,0,0,.01,0,.02,0,0,0,0,0,0h.01s0-.01,0-.01l.09-.08h0c.29-.31,.48-.68,.56-1.08-.1,.31-.27,.64-.54,.99Z"/>
      <path class="cls-1" d="M1.2,14.76c-.14-4.08,1.61-7.8,4.47-10.31,.12-.11,.25-.21,.37-.32,1.37-1.12,2.97-1.97,4.72-2.46-.16-.23-.26-.51-.27-.81,0-.13,0-.25,.03-.36C4.28,2.23-.22,8.06,0,14.8c.05,1.35,.28,2.64,.67,3.87l1.12-.41c-.35-1.11-.56-2.28-.6-3.5Z"/>
      <path class="cls-1" d="M19.27,27.76s0,0,0,0c-.04,.02-.09,.04-.13,.05,.05-.02,.09-.03,.14-.05Z"/>
      <path class="cls-4" d="M16.88,4.4c-.26,.07-.45,.31-.44,.59,.01,.32,.28,.58,.61,.57,.32-.01,.58-.28,.57-.61,0-.15-.06-.28-.16-.38-.11-.12-.27-.19-.45-.19-.04,0-.09,0-.13,.02Z"/>
      <path class="cls-4" d="M6.82,6.01c.32-.01,.58-.28,.57-.61-.01-.32-.28-.58-.61-.57-.32,.01-.58,.28-.57,.61,.01,.32,.28,.58,.61,.57Z"/>
      <path class="cls-4" d="M5.27,14.4c.04-.08,.05-.17,.05-.26,0-.07-.02-.14-.04-.2-.09-.22-.31-.37-.56-.36-.32,.01-.58,.28-.57,.61,.01,.32,.28,.58,.61,.57,.23,0,.43-.15,.52-.35Z"/>
      <path class="cls-4" d="M7.82,23.26s0,0-.01,0c-.32,.02-.57,.29-.55,.61,.01,.32,.28,.58,.61,.57,.32-.01,.58-.28,.57-.61,0-.06-.01-.11-.03-.16-.08-.24-.31-.41-.58-.4Z"/>
      <path class="cls-1" d="M19.54,22.1c-.1-.02-.2-.05-.3-.07,0,0,0,.01,0,.01,0,0,.11,.02,.3,.05Z"/>
      <path class="cls-4" d="M23.64,21.94c.32-.01,.58-.28,.57-.61-.01-.32-.28-.58-.61-.57-.18,0-.34,.09-.44,.22,0,0,0,0,0,.01-.08,.1-.12,.23-.12,.37,.01,.32,.28,.58,.61,.57Z"/>
      <polygon class="cls-1" points="27.54 4.9 27.51 4.92 27.54 4.91 27.58 4.9 27.62 4.88 27.78 4.8 27.77 4.8 27.62 4.87 27.54 4.9"/>
      <polygon class="cls-1" points="9.11 17.12 9.02 17 9 16.98 8.71 16.85 8.97 17.03 9.11 17.12"/>
      <path class="cls-4" d="M13.65,13.62s.02-.03,.01-.19c0-.04,0-.08-.01-.13-.39,.12-.96,.3-1.52,.48-.93,.31-1.84,.61-1.84,.61l1.79-.73,1.41-.57s0-.04-.04-.14c0-.02-.02-.05-.03-.08-.62,.24-1.44,.56-1.44,.56l1.38-.77s-.01-.03-.04-.09l-1.47,.64-.48,.21-1.27,.56,.43-.12h.03s1.42-.39,1.42-.39l-1.73,.83-1.08,.52-.14,.07-.11,.05,.19,.33,.21,.36,.75,1.29-.27-.85-.07-.21,.81,1.32-.75,.18-.33,.08-.34-.14-.07-.03-.17-.07-.12-.05-.12-.05h-.02s-.11,.03-.11,.03h-.05s-.72,.17-.72,.17l-.83,.18h1.62l-.95,.17-.46,.08-.59,.11-.09,.02-.4,.07-1.2,.22-.4,.07h-.03s-.39,.08-.39,.08l-.38,.07h-.02s-.02,.01-.02,.01l-.13,.04h.14s.05-.01,.05-.01l.4-.03,.41-.03h.03s.42-.04,.42-.04l.32-.03,.68-.05h.02s.24-.02,.24-.02l.41-.03h.02s.58-.05,.58-.05l4.69-.37-1.87-2.51-.06-.08-.39,.03-.38,.03,.33-.12,3.08-1.12,1.1-.4Zm-3.62,2.06l.16,.22,1.26,1.74-1.75,.17-.37,.03-.97,.09-1.81,.17,2.03-.31,.48-.07,1.7-.26,.29-.04-.16-.27-.88-1.46-.18-.29,.2,.28Z"/>
      <path class="cls-10" d="M8.48,16.93l-2.14,.74-.38,.13-.2,.07,.2-.08,.37-.15,1.05-.44-.54,.17-.18,.06-.38,.12-.38,.12-1.14,.36-.38,.12h-.03s-.38,.13-.38,.13l-.37,.11h-.02s.02,0,.02,0l.38-.07,.39-.07h.03s.4-.08,.4-.08l1.2-.22,.4-.07,.09-.02,.59-.11,.46-.08,.95-.17h-1.62l.83-.18,.72-.16h.05s.11-.04,.11-.04h.02s.12,.04,.12,.04l.12,.05,.17,.07,.07,.03,.34,.14,.33-.08,.75-.18-.81-1.32,.07,.21,.27,.85-.75-1.29-.21-.36-.19-.33,.11-.05,.14-.07,1.08-.52,1.73-.83-1.42,.39h-.03s-.43,.12-.43,.12l1.27-.56,.48-.21,1.47-.64s-.02-.04-.03-.05c-.02-.03-.03-.06-.06-.1-.03-.06-.08-.12-.13-.19-.01-.02-.03-.03-.04-.05l-.07,.03-.32,.13-3.9,1.56,1.66-.5,.82-.25-1.3,.52-2.2,.87h-.02s.94,1.79,.94,1.79l.14,.26,.1,.19,.1,.19,.02,.02,.08,.12-.13-.09-.27-.18-.05,.02-.18,.06Z"/>
      <polygon class="cls-1" points="3.59 18.39 3.61 18.38 3.98 18.26 4.35 18.15 4.38 18.14 4.77 18.02 5.91 17.66 6.29 17.54 6.67 17.42 6.85 17.37 7.38 17.2 6.33 17.64 5.96 17.79 5.76 17.87 5.97 17.8 6.34 17.67 8.48 16.93 8.66 16.86 8.71 16.85 8.68 16.83 8.53 16.73 8.41 16.64 8.3 16.68 7.62 16.93 6.83 17.21 6.24 17.42 5.87 17.55 5.77 17.59 4.74 17.95 4.37 18.09 4.34 18.1 3.97 18.23 3.61 18.36 3.56 18.37 3.46 18.41 3.43 18.42 3.39 18.44 3.38 18.44 3.39 18.44 3.43 18.43 3.44 18.43 3.57 18.39 3.59 18.39"/>
      <path class="cls-11" d="M8.8,16.6l-.14-.26-.94-1.79h.02s2.2-.88,2.2-.88l1.3-.52-.82,.25-1.66,.5,3.9-1.56,.32-.13,.07-.03c-.08-.1-.18-.2-.3-.31-.08-.06-.16-.13-.26-.19-.4,.17-.82,.36-1.25,.54-2.12,.92-4.32,1.86-4.32,1.86l.38,.52,1.15,1.6,.32,.45,.08,.12,.15,.21-.1-.19-.1-.19Z"/>
      <polygon class="cls-1" points="10.88 17.15 11.05 17.42 10.76 17.46 9.06 17.72 8.59 17.79 6.56 18.1 8.37 17.92 9.34 17.83 9.7 17.8 11.45 17.63 10.19 15.89 10.03 15.67 9.83 15.39 10 15.68 10.88 17.15"/>
      <path class="cls-8" d="M15.04,10.01c.44,.3,.73,.76,.9,1.25,.04,.11,.07,.23,.09,.34,.06,.27,.08,.55,.06,.79,0-.06-.02-.14-.04-.22-.07-.32-.22-.75-.46-1.07-.05-.07-.11-.13-.17-.19,.13,.22,.23,.5,.3,.85,.07,.38,.09,.83,.06,1.38-.01,.17-.03,.34-.05,.52,.02,.02,.04,.04,.05,.05,.2,.18,.43,.17,.65,.1,.13-.05,.26-.12,.36-.19-.09-.1-.15-.22-.2-.35-.08-.22-.1-.49-.12-.87-.01-.23-.02-.51-.03-.84,0-.02,0-.04,0-.06-.08-1.35-.96-1.89-.96-1.89,0,0,.17,.2,.34,.55,.13,.26,.27,.61,.34,1.01-.19-.75-.55-1.22-.87-1.5-.06-.06-.13-.11-.19-.15-.19-.14-.34-.2-.41-.23-.15,.11-.25,.23-.3,.31,0,0-.01,.02-.01,.02-.03,.05-.04,.07-.04,.07,.12,.02,.24,.06,.35,.1,.13,.05,.25,.12,.36,.19Z"/>
      <path class="cls-6" d="M15.28,9.7c.32,.28,.68,.75,.87,1.5-.07-.4-.21-.75-.34-1.01-.18-.34-.34-.55-.34-.55,0,0,.88,.54,.96,1.89,0,.02,0,.04,0,.06,.01,.33,.02,.6,.03,.84,.02,.38,.04,.65,.12,.87,.05,.13,.11,.24,.2,.35,.11-.07,.19-.14,.22-.18,.02-.01,.02-.02,.02-.02,0,0,0-.04,0-.12,.02-.39,.06-1.64-.08-2.56-.07-.47-.2-.84-.39-1.12-.07-.11-.16-.2-.25-.28-.22-.18-.49-.27-.82-.28-.01,0-.02,0-.03,0-.11,0-.21,.01-.3,.03-.2,.04-.35,.12-.47,.2,.07,.03,.22,.1,.41,.23,.06,.04,.12,.09,.19,.15Z"/>
      <path class="cls-3" d="M13.53,18.76c-.15,.68-.1,1.35,.21,1.92,0,0,.59,.34,1.47,.54-.1-.8,.19-2.6,.19-2.6,0,0-.67,.98-.66,2.34-.43-1.35-.04-2.07,.43-2.76,.47-.69,.42-.78,.42-1.25-.26,.49-.77,.6-1.39,.59,.94-.27,1.39-.66,1.49-1.22-.19,.53-.63,.77-1.33,.87,.88-.32,1.24-.83,1.24-1.35s.05-.94-.37-1.23c.25,.49,.32,.95-.05,1.43,.19-.49,.15-1.05-.27-1.33-.01,0-.02-.02-.03-.02,0,0,.01,.02,.02,.03,.31,.54,.28,1,.07,1.31,.14-.49-.02-1.02-.49-1.22-.13-.05-.27-.08-.44-.08-.18,0-.33,0-.45,0-.44,0-.57,.04-.75,.14,.53-.07,.97,.15,.97,.15,0,0-.88-.2-1.3,.19-.43,.39-.29,.93,.43,1.69,.72,.76,.77,1.17,.62,1.84Z"/>
      <path class="cls-6" d="M13.02,11.22c.84,.62,1.32,1.07,1.34,2,.04-.19,.05-.38,.02-.58-.06-.47-.33-.95-.91-1.34,.66,.18,1.2,.68,1.2,1.48,0,.48-.01,.83,.16,1.11,.07,.11,.16,.21,.3,.29,.08-.05,.16-.1,.24-.16,0-.05,0-.1,0-.14,0,0,0-.01,0-.02,0-.24,0-.48,0-.72-.02-.86-.17-1.66-1-2.36,.5,.23,.81,.7,.92,.91,.04,.07,.06,.11,.06,.11,0,0-.04-.34-.21-.74-.13-.31-.34-.65-.66-.89-.18-.13-.4-.24-.67-.28-.01,0-.02,0-.04,0-.41-.06-.74-.07-1.01,0-.15,.04-.29,.11-.4,.21,0,.25,.08,.71,.65,1.12Z"/>
      <path class="cls-8" d="M12.27,11.35c-.05-.1-.08-.25-.06-.41,.01-.07,.04-.15,.09-.23,.02,.19,.11,.36,.28,.56,.12,.14,.28,.3,.49,.48,.11,.1,.23,.2,.36,.32,0,0,.01,.01,.02,.02,.03,.03,.06,.06,.09,.08,.01,.01,.03,.02,.04,.04,.03,.03,.06,.06,.09,.09,.29,.32,.44,.63,.47,.95,.03,.27-.01,.55-.11,.81,0-.1-.02-.18-.04-.23-.03-.06-.06-.09-.06-.09,0,0-.48,.25-.73,.34,.03,.03,.06,.06,.1,.09,.09,.07,.2,.13,.33,.18,.25,.09,.55,.13,.86,.07,.08-.01,.15-.03,.23-.06,.14-.04,.28-.1,.42-.18-.14-.08-.23-.18-.3-.29-.17-.27-.16-.63-.16-1.11,0-.79-.54-1.3-1.2-1.48,.57,.39,.84,.86,.91,1.34,.03,.19,.02,.39-.02,.58-.02-.92-.5-1.38-1.34-2-.57-.42-.65-.87-.65-1.12-.13,.11-.24,.26-.34,.45-.13,.26-.22,.6-.29,1.03-.01,.08-.03,.16-.04,.24l.65-.31s-.05-.06-.09-.16Z"/>
      <polygon class="cls-1" points="21.1 8.82 21.07 8.8 21.09 8.83 21.24 9.04 21.35 9.08 21.1 8.82"/>
      <path class="cls-10" d="M20.56,9.54c.17-.06,.31-.12,.43-.16,.03,0,.05-.02,.08-.03,0,0,.01,0,.02,0,0,0,0,0,0,0,.11-.04,.19-.07,.26-.1,0,0,0,0,0,0,0,0,.02,0,.03-.01,.09-.03,.13-.05,.13-.05l-.14,.08h0s-.01,.01-.01,.01l-.23,.14-.42,.25-.06,.04-.07,.04s.06,.19,.08,.39l.1-.05,.88-.42,.36-.17,.75-.36,.34-.16h.01s-.01,0-.01,0l-.35,.11-.31,.1-.47,.15h-.03s-.37,.13-.37,.13l.31-.21,.03-.02,.86-.58-.21-.5-.07-.17-.07-.17h-1.57l.06-.03h.02s.96-.42,.96-.42l.06-.03,.32-.14,.2-.08,.37-.16,1.05-.45,.37-.16h.02s.38-.17,.38-.17l.91-.39,.22-.09,.38-.16,1.36-.59h.03s-.04,0-.04,0l-1.54,.35-.43,.1-.1,.02-1.2,.27-.11,.03-.33,.08-.38,.09-.43,.1-.29,.07-.61,.14-.18,.04h-.02s-.48,.11-.48,.11h-.03s-.48,.12-.48,.12h0s0,0,0,0l.52-.08h.04s.51-.08,.51-.08h.09s.5-.09,.5-.09l.17-.03,1.14-.17-.67,.19-.62,.18-.14,.04-.71,.2h-.03s-.45,.14-.45,.14l-.98,.28-.26,.07h0s-.02,0-.02,0l.21,.32,.55,.82v.02s.08,.09,.08,.09l.03,.04,.12,.15-.13-.14-.02-.02,.02,.02,.13,.16,.17,.21,.02,.03,.03,.03,.22,.28-.11-.04-.07-.02-.23-.07h-.02s-.01,0-.01,0l-.16,.09h0s0,0,0,0l-.37,.2-.07,.04s.16,.18,.18,.31c.02,0,.04-.02,.07-.03Z"/>
      <polygon class="cls-9" points="21.35 9.08 21.13 8.8 21.1 8.77 21.08 8.74 20.92 8.53 20.79 8.37 20.77 8.34 20.76 8.33 20.67 8.23 19.37 6.82 19.35 6.8 19.02 6.44 19.29 6.4 20.53 6.18 20.77 6.14 21.06 6.09 21.1 6.08 21.61 6 22.21 5.89 23.21 5.72 23.63 5.65 24.05 5.57 23.64 5.66 23.11 5.76 22.17 5.95 21.67 6.05 21.17 6.15 21.14 6.16 20.78 6.23 20.63 6.26 19.4 6.51 19.3 6.53 19.51 6.78 19.77 7.1 20.69 8.22 20.7 8.23 20.69 8.22 20.14 7.4 19.93 7.07 19.94 7.07 19.94 7.07 20.2 7 21.18 6.72 21.63 6.59 21.66 6.58 22.37 6.38 22.52 6.34 23.14 6.16 23.8 5.97 22.66 6.15 22.5 6.17 21.99 6.25 21.9 6.26 21.4 6.34 21.36 6.35 20.84 6.43 20.84 6.43 20.84 6.43 21.32 6.32 21.36 6.31 21.83 6.2 21.85 6.2 22.04 6.16 22.64 6.02 22.94 5.95 23.37 5.85 23.74 5.77 24.08 5.69 24.19 5.67 25.39 5.4 25.5 5.37 25.93 5.27 27.47 4.93 27.51 4.92 27.54 4.9 27.62 4.87 27.77 4.8 27.61 4.83 27.52 4.85 27.45 4.86 26.13 5.08 25.81 5.13 25.36 5.21 24.03 5.43 23.98 5.44 23.51 5.52 23.43 5.53 22.4 5.7 21.78 5.81 21.45 5.86 20.93 5.95 20.89 5.95 20.35 6.05 19.14 6.25 18.66 6.33 18.66 6.33 18.66 6.33 18.79 6.45 19.57 7.26 19.62 7.31 20.58 8.29 20.68 8.39 20.71 8.43 20.86 8.58 21.05 8.77 21.07 8.8 21.07 8.8 21.07 8.8 21.1 8.82 21.35 9.08"/>
      <path class="cls-4" d="M27.51,4.92h-.03s-1.36,.6-1.36,.6l-.38,.16-.22,.09-.91,.39-.38,.16h-.02s-.37,.17-.37,.17l-1.05,.45-.37,.16-.2,.08-.32,.14-.06,.03-.96,.41h-.02s-.06,.04-.06,.04h1.57l.07,.17,.07,.17,.21,.5-.86,.58-.03,.02-.31,.21,.37-.12h.03s.47-.16,.47-.16l.31-.1,.35-.11h.01s-.01,0-.01,0l-.34,.16-.75,.36-.36,.17-.88,.42-.1,.05c0,.06,.01,.12,.01,.18,.04-.02,.08-.03,.12-.05,.37-.15,.7-.28,.98-.39,.13-.05,.26-.1,.37-.14,.47-.18,.72-.28,.72-.28l-.69,.33-.36,.17-1,.47-.12,.05v.1h0v.17s.05,0,.12,0c.06,0,.15,0,.25,.02,.02,0,.05,0,.07,.01,.26,.04,.45,.17,.54,.34,.04-.01,.08-.02,.12-.03,.18-.05,.35-.1,.51-.15,.13-.04,.26-.08,.38-.11,.47-.14,.85-.25,1.15-.34,.15-.04,.27-.08,.38-.12,0,0,.02,0,.03,0,.17-.05,.29-.09,.38-.12,.17-.05,.23-.07,.23-.07l-.75-1.04-.82-1.14-.12-.17-.23-.32-.24,.05h0s-.13,.03-.13,.03l-.44,.09h-.03s.02,0,.02,0l.37-.18,.11-.05,.36-.18,1.01-.51,.36-.18,.07-.03,.36-.18,1.08-.54,.28-.14,.09-.04,1.3-.65,.07-.03,.03-.02h-.04s-.04,.02-.04,.02Z"/>
      <polygon class="cls-1" points="19.77 7.1 19.51 6.78 19.3 6.53 19.4 6.51 20.63 6.26 20.78 6.23 21.14 6.16 21.17 6.15 21.67 6.05 22.17 5.95 23.11 5.76 23.64 5.66 24.05 5.57 23.63 5.65 23.21 5.72 22.21 5.89 21.61 6 21.1 6.08 21.06 6.09 20.77 6.14 20.53 6.18 19.29 6.4 19.02 6.44 19.35 6.8 19.37 6.82 20.67 8.23 20.76 8.33 20.77 8.34 20.79 8.37 20.92 8.51 20.8 8.36 20.77 8.32 20.7 8.23 20.69 8.22 19.77 7.1"/>
      <path class="cls-6" d="M18.51,8.92s.07,.03,.1,.05c.29,.16,.71,.5,.85,1.21,.04-.31-.06-.65-.15-.89,0-.01,0-.02-.01-.04-.06-.15-.11-.25-.11-.25,0,0,.3,.14,.47,.58,.04,.09,.07,.19,.09,.31,.03,.14,.06,.26,.11,.36,.06,.13,.13,.23,.2,.3,.04,.04,.08,.07,.12,.1h.22s0-.04,0-.1c0-.06,0-.15-.02-.26-.02-.13-.05-.28-.11-.44-.06-.15-.14-.32-.25-.48-.05-.07-.11-.15-.18-.22-.02-.03-.05-.05-.07-.07-.41-.38-.92-.39-1.21-.36-.04,0-.08,.01-.11,.02-.07,.01-.11,.02-.11,.02,.04,.03,.09,.06,.13,.1,.01,.01,.03,.02,.04,.03Z"/>
      <path class="cls-8" d="M19.86,10.26c-.04-.1-.08-.22-.11-.36-.02-.12-.05-.22-.09-.31-.17-.44-.47-.58-.47-.58,0,0,.05,.1,.11,.25,0,.01,0,.02,.01,.04,.09,.23,.18,.58,.15,.89-.14-.71-.56-1.05-.85-1.21-.04-.02-.07-.04-.1-.05,.07,.06,.13,.12,.2,.2,.23,.25,.43,.61,.39,1.04,0,0,0,.02,0,.03,0-.04,0-.07-.01-.11-.01-.09-.04-.17-.06-.24-.09-.25-.23-.42-.39-.53,.1,.13,.17,.28,.23,.43,.16,.45,.16,.93,.16,.93h1.16s-.08-.06-.12-.1c-.08-.07-.15-.17-.2-.3Z"/>
      <path class="cls-8" d="M16.49,8.99c.42,.13,.73,.56,.85,1.01,.05,.18,.07,.36,.06,.53,0-.31-.15-.59-.33-.79-.08-.09-.17-.17-.26-.24,.56,.88,.46,2.36,.46,3.65,.05,.03,.11,.05,.16,.07,.44,.16,.9,.02,1.07-.34,.03-.06,.05-.12,.06-.18-.52-.18-1.03-.73-1.14-1.2-.01-.06-.02-.11-.02-.17,0-.03,0-.07,0-.1,.01-.13,.05-.24,.1-.33,.08-.13,.2-.21,.3-.25,.04-.02,.09-.02,.12-.02h.28s0-.09,0-.13c0-.09-.02-.17-.03-.24,0,0,0-.02,0-.03-.16-.91-.69-1.11-.69-1.11,0,0,.33,.57,.37,1.11,0,.06,0,.12,0,.18,0-.06-.02-.12-.03-.18-.02-.12-.05-.23-.09-.33-.29-.84-.92-1.11-1.21-1.2-.11,.05-.19,.11-.26,.15-.08,.06-.12,.1-.12,.1,.12-.01,.24,0,.35,.04Z"/>
      <path class="cls-6" d="M17.73,9.9c.03,.1,.06,.21,.09,.33,.01,.06,.02,.12,.03,.18,0-.06,0-.12,0-.18-.04-.54-.37-1.11-.37-1.11,0,0,.53,.19,.69,1.11,0,0,0,.02,0,.03,.01,.08,.02,.16,.03,.24,0,.04,0,.08,0,.13h.56c-.05-.51-.18-.9-.34-1.19-.02-.03-.03-.06-.05-.08-.01-.02-.03-.05-.04-.07-.02-.03-.04-.06-.06-.09-.24-.31-.53-.49-.8-.56-.09-.03-.18-.04-.27-.05-.03,0-.07,0-.1,0-.24,0-.43,.06-.58,.13,.29,.08,.93,.36,1.21,1.2Z"/>
      <path class="cls-5" d="M21.88,24.88c.03-.12,.05-.24,.06-.36,0-.03,0-.06,0-.1,0-.15-.02-.31-.06-.46-.02-.08-.05-.16-.08-.24-.11-.26-.34-.48-.69-.67-.12-.07-.26-.13-.41-.19-.06-.03-.13-.05-.19-.07,0,0,0,0-.01,0-.12-.04-.24-.08-.37-.12-.34-.1-.72-.2-1.14-.28-.13-.03-.26-.05-.39-.08-.05,0-.09-.02-.14-.03-.17-.03-.35-.06-.53-.09-.03,0-.06-.01-.1-.02-1.02-.17-1.92-.32-2.69-.5-.9-.22-1.61-.5-2.11-.95,.02,.08,.05,.15,.09,.23,.19,.36,.62,.69,1.71,1.05-2.02-.37-2.43-1.49-2.52-1.98-.02-.14-.02-.23-.02-.23-.02,.08-.03,.15-.04,.23,0,.02,0,.04,0,.05,.09,.55,.46,1.39,1.77,1.91,1.21,.48,2.06,.65,2.55,.7,.01,0,.02,0,.03,0,.32,.04,.49,.02,.49,.02,0,0-.13-.03-.33-.08-.38-.1-1.02-.29-1.51-.53-.07-.03-.13-.07-.19-.1,.95,.26,1.47,.34,2.23,.45,.23,.03,.48,.07,.77,.12,0,0,.01,0,.02,0,.12,.02,.25,.04,.39,.06,0,0,0,0,.01,0,.04,0,.07,.01,.11,.02,.14,.02,.28,.05,.43,.08,.31,.06,.62,.14,.92,.25,.13,.05,.26,.1,.39,.16,0,0,0,0,0,0,0,0,.02,0,.03,.01,.12,.06,.23,.13,.34,.21,.33,.23,.58,.54,.71,.96,0,0,0,.01,0,.02,.04,.13,.06,.27,.07,.41,0,.03,0,.06,0,.09,0,.15,0,.32-.03,.5-.02,.11-.04,.22-.06,.33,0,.02,0,.04-.01,.06,.01-.01,.03-.03,.04-.04,.17-.17,.31-.38,.4-.6,.03-.07,.05-.14,.07-.22Z"/>
      <path class="cls-2" d="M21.46,25.34c.03-.18,.03-.34,.03-.5,0-.03,0-.06,0-.09-.01-.15-.04-.29-.07-.41,0,0,0-.01,0-.02-.13-.42-.38-.72-.71-.96-.11-.08-.22-.14-.34-.21,0,0-.02,0-.03-.01,0,0,0,0,0,0-.12-.06-.25-.12-.39-.16-.29-.11-.61-.19-.92-.25-.14-.03-.29-.06-.43-.08-.04,0-.07-.01-.11-.02,0,0,0,0-.01,0-.14-.02-.27-.04-.39-.06,0,0-.01,0-.02,0-.29-.04-.54-.08-.77-.12-.75-.11-1.28-.2-2.23-.45,.06,.03,.12,.07,.19,.1,.49,.24,1.13,.43,1.51,.53,.2,.05,.33,.08,.33,.08,0,0-.16,.01-.49-.02-.01,0-.02,0-.03,0-.49-.06-1.34-.23-2.55-.7-1.31-.52-1.68-1.36-1.77-1.91-.16,1.7,1.58,2.3,3.46,2.8,.27,.07,.55,.14,.83,.21,.01,0,.03,0,.04,.01,.35,.09,.69,.18,1.01,.28,.35,.1,.65,.21,.92,.31,.19,.07,.36,.14,.52,.2,0,0,.02,0,.03,.01,.17,.07,.32,.15,.46,.21,.72,.37,.85,.61,.85,.61,0,0-.06-.38-.43-.85-.08-.1-.17-.2-.27-.3-.02-.02-.03-.03-.05-.05-.11-.11-.24-.22-.39-.32-.02-.01-.03-.03-.05-.04,.05,.02,.1,.04,.15,.06,.19,.08,.37,.16,.53,.25,0,0,.01,0,.02,.01,.14,.07,.26,.14,.37,.22,.4,.26,.66,.53,.81,.82,0,.02,.02,.04,.03,.05,.06,.13,.1,.26,.13,.39,0,.03,0,.05,.01,.08,.02,.15,.03,.3,.02,.46,0,.01,0,.03,0,.04,0,.12-.02,.24-.04,.37,.07-.05,.13-.1,.18-.15,0-.02,.01-.04,.01-.06,.03-.12,.05-.23,.06-.33Z"/>
      <path class="cls-6" d="M21.66,11.51c-.21-.21-.37-.35-.37-.35v.09s-.04,.33-.04,.33l-.02,.21s0-.08,0-.2c0-.13-.04-.31-.12-.44-.02-.04-.05-.07-.08-.1-.06-.05-.14-.09-.24-.1-.01,0-.03,0-.04,0h-1.08s.07,.03,.13,.1c.05,.05,.09,.13,.1,.24,.02,.25-.13,.4-.49,.41-.01,0-.03,0-.04,0h-.64c-.09,0-.16-.05-.29-.27-.03-.05-.06-.1-.09-.15-.01-.02-.02-.04-.03-.05-.05-.08-.1-.15-.14-.21-.05-.08-.09-.14-.09-.14,0,0-.08-.01-.17,.06,0,.03,0,.05,0,.09,0,0,0,.02,0,.03-.01,.32,.1,.86,.89,1.08,.08,.02,.16,.04,.25,.06-.07-.02-.14-.05-.2-.08-.44-.22-.65-.63-.65-.63,0,0,.42,.43,1.18,.63,.39,.1,.87,.14,1.42,.03,.09-.02,.18-.04,.28-.07,.12-.03,.24-.07,.36-.12-.09,.1-.19,.18-.29,.24-.3,.18-.6,.2-.6,.2,0,0,.32,.08,.71-.03,.14-.04,.28-.1,.42-.19,.06-.04,.13-.09,.19-.15-.06,.14-.14,.27-.24,.38-.07,.08-.14,.16-.22,.23-.28,.26-.58,.42-.58,.42,0,0,.12,.02,.28-.04,.13-.05,.29-.15,.44-.35,0,.04-.01,.09-.02,.13-.08,.67-.19,1.74-.99,2.9,.11-.1,.22-.2,.31-.31,.51-.61,.88-1.79,1.07-2.52,.03-.11,.05-.2,.07-.29,.03-.12,.05-.22,.06-.28,.02-.1,.03-.17,.02-.23,0-.19-.1-.24-.29-.45-.04-.04-.07-.07-.11-.11Z"/>
      <path class="cls-3" d="M21.53,12.66c-.15,.2-.31,.3-.44,.35-.16,.06-.28,.04-.28,.04,0,0,.29-.15,.58-.42,.07-.07,.15-.15,.22-.23,.09-.12,.18-.24,.24-.38-.06,.06-.13,.11-.19,.15-.14,.09-.29,.15-.42,.19-.39,.11-.71,.03-.71,.03,0,0,.3-.02,.6-.2,.1-.06,.2-.14,.29-.24-.12,.05-.24,.09-.36,.12-.09,.03-.19,.05-.28,.07-.55,.11-1.03,.08-1.42-.03-.76-.2-1.18-.63-1.18-.63,0,0,.21,.41,.65,.63,.06,.03,.13,.06,.2,.08-.09-.02-.18-.04-.25-.06-.79-.22-.9-.76-.89-1.08,0,0,0-.02,0-.03,0-.03,0-.06,0-.09-.03,.02-.06,.05-.08,.08-.04,.06-.08,.13-.11,.25-.09,.34,.19,.68,.62,.85,.1,.04,.2,.07,.31,.08-.07,0-.15,0-.21-.02-.29-.05-.51-.2-.51-.2,0,0,.23,.32,.74,.53,.1,.04,.21,.08,.33,.11,.37,.1,.85,.13,1.45,0,.23-.05,.47-.11,.74-.21-.48,.43-.79,.57-1.23,.63-.11,.01-.23,.02-.36,.03v.39s.51,.4,1.31,.11c-.78,.5-1.69-.02-1.69-.02,0,0-1.4,.71-2.16,2.32,.27-1.07,.84-1.78,1.28-2.09,0,0-2.02,.46-1.57,2.93,1.22,.65,1.82,.52,2.48,.2-.56,.16-1.41-.09-1.41-.09,0,0,1.76,.28,2.59-.88-.65,.53-1.76,.67-1.76,.67,0,0,1.06-.3,1.8-.9,.01-.01,.03-.02,.04-.03,.8-1.16,.91-2.23,.99-2.9,0-.05,.01-.09,.02-.13Z"/>
      <path class="cls-1" d="M17.16,27.14c-.04-.1-.09-.21-.14-.32,.05,.1,.1,.21,.13,.32,.09,.26,.15,.53,.15,.81,.02,0,.04-.01,.04-.01,0,0,0-.33-.18-.8Z"/>
      <path class="cls-1" d="M13.98,24.4c-.25-.16-.45-.24-.51-.26,.16,.08,.33,.17,.51,.26Z"/>
      <path class="cls-1" d="M11.61,22.93h.02s-.04-.03-.06-.05c.01,.02,.03,.03,.04,.05Z"/>
      <path class="cls-1" d="M22.3,24.87c.02-.05,.03-.1,.04-.15,.05-.2,.06-.38,.06-.55,0-.03,0-.06,0-.09-.02-.15-.05-.3-.11-.43-.16-.4-.47-.7-.79-.89-.02,0-.03-.02-.05-.03-.11-.06-.23-.11-.35-.16,0,0-.02,0-.03-.01-.13-.06-.27-.11-.4-.15-.04-.02-.09-.03-.13-.04-.16-.05-.32-.1-.47-.13-.2-.05-.39-.09-.53-.12-.18-.04-.3-.05-.3-.05,0,0,0,0,0-.01,0,0,0,0,0,0,0-.04-.03-.2-.05-.42-.08-.65-.22-1.86-.24-2.5-.03-.9,.08-1.12,1.2-2.29,.04-.04,.08-.08,.12-.13,.15-.17,.3-.35,.44-.55,.05-.07,.1-.14,.14-.21,.78-1.17,1.36-2.69,1.46-3.97,.04-.01,.09-.03,.13-.04,.06-.02,.12-.04,.18-.06,.13-.04,.25-.08,.38-.12,.41-.13,.8-.26,1.13-.36,.13-.04,.26-.08,.38-.12,0,0,.02,0,.03,0,.14-.04,.27-.08,.38-.12,.52-.16,.82-.26,.82-.26l-.35-.49-1.52-2.14-.24-.34-.03-.04,.05-.03,.61-.37,.5-.3,.06-.04,.34-.21,1.02-.62,.34-.21,3.27-1.99-2.07,.36h0s-.3,.05-.3,.05l-1.84,.32-.46,.08-1.39,.25-.48,.08-.09,.02-.49,.09-1.52,.27-.53,.09h-.04s-.56,.1-.56,.1l-1.83,.32-.1,.02,.35,.37,.41,.43,1.66,1.73h0s.05,.06,.05,.06h-.01s-.06,.04-.06,.04l-.33,.17-.07,.04s-.02-.02-.05-.06c-.12-.12-.45-.41-1.06-.46-.15-.01-.33,0-.52,.02-.08,.01-.17,.03-.26,.05-.06,.01-.11,.03-.17,.04-.04-.04-.08-.08-.13-.11-.32-.21-.79-.26-1.23-.16-.3,.07-.58,.2-.78,.4-.03,.03-.06,.06-.08,.09-.02,0-.04,0-.06-.01-.12-.02-.25-.03-.37-.02-.2,.02-.39,.07-.56,.16-.28,.14-.51,.35-.66,.6,0,0-.01,.02-.02,.03-.02,.04-.04,.07-.06,.11-.06-.01-.11-.02-.16-.03-.44-.08-.83-.09-1.15-.02-.34,.07-.61,.22-.81,.46-.05,.06-.09,.12-.13,.18-.26,.46-.38,1.11-.42,1.45-.02,.14-.03,.22-.03,.22l-.12,.05-4.91,2.01h0s.16,.22,.16,.22l1.59,2.11,.06,.08-.06,.02-1.98,.71-.37,.13-.51,.18-.61,.22-.38,.14h-.03s-.29,.11-.29,.11l-.08,.03-.33,.12-.05,.02-.14,.05h-.02s-.07,.03-.07,.03l-.52,.19-.37,.13-.07,.03-1.24,.44-.19,.07h.12s1.47-.07,1.47-.07h.09s.42-.02,.42-.02l1.27-.06,.42-.02h.03s.44-.02,.44-.02l1.31-.06,.45-.02,6.26-.28-2.24-3.01,.86-.27s-.02,.2,.07,.51c.09,.32,.28,.77,.72,1.26,.87,.98,.74,1.06,.63,1.93-.1,.87-.1,1.29,.19,1.58-.02,0-.04-.02-.07-.03-.05-.02-.1-.05-.14-.07-.22-.13-.41-.33-.54-.56-.17-.3-.26-.67-.23-1.07-.42,.35-.79,.67-1.06,1.08-.27,.41-.42,.92-.39,1.63,0,.2,.05,.39,.11,.57,.05,.14,.11,.27,.18,.4,0,0,.83,.76,1.58,1.37,.17,.1,.39,.22,.64,.35,0,0,.01,0,.02,0,.06,.02,.25,.11,.51,.26,0,0,0,0,.01,0,.1,.05,.2,.1,.31,.16,.12,.06,.23,.12,.36,.18,0,0,0,0,0,0,.03,.02,.07,.03,.1,.05,0,0,0,0,0,0,.01,0,.02,.01,.04,.02,.08,.04,.16,.08,.24,.12,.02,0,.03,.02,.05,.03,.2,.11,.38,.22,.56,.35,.44,.31,.8,.66,1.08,1.03,.09,.12,.16,.24,.23,.36,.01,.02,.02,.05,.04,.07,0,.02,.02,.03,.03,.05,0,0,0,0,0,0,.06,.11,.11,.22,.14,.32,.19,.48,.18,.8,.18,.8,0,0-.01,0-.04,.01,0,.13,0,.25-.02,.38,0,0,0,.02,0,.02,.07-.01,.14-.03,.21-.04,.52-.11,1.09-.28,1.64-.5,.04-.02,.09-.04,.13-.05,.13-.06,.26-.12,.39-.18,.04-.02,.08-.04,.12-.06,.15-.08,.3-.16,.45-.26,.22-.14,.44-.29,.64-.46,.09-.08,.18-.16,.27-.24,.03-.03,.06-.06,.09-.08,0,0,0,0,0,0,0,0,.02-.02,.02-.02,.03-.03,.06-.06,.09-.09,.07-.08,.14-.15,.21-.23,0,0,.01-.01,.02-.02,.02-.03,.05-.06,.07-.08,.04-.05,.09-.11,.13-.16,.27-.36,.44-.69,.54-.99Zm-.26-12.57c-.01,.06-.03,.16-.06,.28-.02,.08-.04,.18-.07,.29-.19,.73-.56,1.91-1.07,2.52-.09,.11-.2,.21-.31,.31-.01,.01-.03,.02-.04,.03-.74,.6-1.8,.9-1.8,.9,0,0,1.11-.14,1.76-.67-.84,1.16-2.59,.88-2.59,.88,0,0,.85,.25,1.41,.09-.66,.32-1.26,.45-2.48-.2-.45-2.47,1.57-2.93,1.57-2.93-.44,.31-1.01,1.01-1.28,2.09,.76-1.61,2.16-2.32,2.16-2.32,0,0,.91,.53,1.69,.02-.8,.29-1.31-.11-1.31-.11v-.39c.13,0,.25-.02,.36-.03,.45-.06,.75-.2,1.23-.63-.26,.1-.51,.16-.74,.21-.6,.12-1.08,.09-1.45,0-.12-.03-.23-.07-.33-.11-.51-.22-.74-.53-.74-.53,0,0,.22,.15,.51,.2,.07,.01,.14,.02,.21,.02-.11-.02-.21-.05-.31-.08-.42-.17-.71-.51-.62-.85,.03-.11,.07-.19,.11-.25,.03-.04,.06-.06,.08-.08,.09-.07,.17-.06,.17-.06,0,0,.04,.06,.09,.14,.04,.06,.09,.14,.14,.21,.01,.02,.02,.04,.03,.05,.03,.05,.06,.11,.09,.15,.13,.22,.2,.27,.29,.27h.64s.03,0,.04,0c.35-.01,.51-.16,.49-.41,0-.11-.05-.19-.1-.24-.06-.07-.13-.1-.13-.1h1.08s.03,0,.04,0c.1,0,.18,.04,.24,.1,.03,.03,.06,.06,.08,.1,.09,.13,.11,.3,.12,.44,0,.12,0,.2,0,.2l.02-.21,.03-.33v-.09s.17,.14,.38,.35c.03,.03,.07,.07,.11,.11,.19,.2,.29,.26,.29,.45,0,.06,0,.13-.02,.23Zm-3.77-1.41h.05s.26,.03,.26,.03h.04s0,0,0,0l.58,.05,.2,.02s.05,.02,.11,.07c.02,.01,.03,.03,.05,.04,.05,.05,.09,.11,.12,.19,.07,.22-.15,.26-.49,.26-.09,0-.16,0-.22,0-.15,0-.2-.02-.29-.1-.04-.04-.1-.11-.16-.19-.06-.08-.12-.16-.17-.23-.02-.03-.04-.06-.06-.08-.03-.04-.04-.06-.04-.06Zm9.08-6.33h.03s.03-.02,.03-.02h-.03s-.03,.02-.03,.02h0Zm-6.97,4.67l.37-.2h0s0,0,0,0l.16-.09h.01s.02,0,.02,0l.23,.07,.07,.02-.14-.22-.02-.03h0s-.03-.03-.03-.03l-.19-.19-.15-.15-.04-.04-.09-.1-.96-.99-.05-.05-.79-.81-.12-.12h0s0,0,0,0l.48-.08,1.21-.2,.54-.09h.04s.52-.09,.52-.09l.33-.06,.62-.1,1.03-.17h.08s.47-.09,.47-.09h.05s1.33-.23,1.33-.23l.45-.08,.32-.05,1.32-.22h.07s.08-.03,.08-.03l.17-.03h0s-.15,.08-.15,.08l-.04,.02-.03,.02-.07,.03-1.3,.65-.09,.04-.28,.14-1.08,.54-.36,.18-.07,.03-.36,.18-1.01,.51-.36,.18-.11,.05-.37,.18h-.02s.03,0,.03,0l.44-.09,.13-.03h0s.24-.05,.24-.05l.23,.32,.12,.17,.82,1.14,.75,1.04s-.06,.02-.23,.07c-.09,.03-.22,.07-.38,.12,0,0-.02,0-.03,0-.11,.03-.24,.07-.38,.12-.3,.09-.67,.2-1.15,.34-.12,.04-.25,.07-.38,.11-.16,.05-.33,.1-.51,.15-.04,.01-.08,.02-.12,.03-.09-.18-.28-.3-.54-.34-.03,0-.05,0-.07-.01-.1-.01-.18-.02-.25-.02-.08,0-.12,0-.12,0v-.16h0v-.1l.12-.05,1-.47,.36-.17,.69-.33s-.25,.1-.72,.28c-.11,.04-.23,.09-.37,.14-.28,.11-.6,.24-.98,.39-.04,.02-.08,.03-.12,.05,0-.06,0-.12-.01-.18-.02-.2-.08-.39-.08-.39l.07-.04,.06-.04,.42-.25,.23-.14h.01s0-.01,0-.01l.14-.08s-.04,.02-.13,.05c0,0-.02,0-.03,.01,0,0,0,0,0,0-.07,.02-.15,.06-.26,.1,0,0,0,0,0,0,0,0-.01,0-.02,0-.02,0-.05,.02-.08,.03-.12,.05-.26,.1-.43,.16-.02,0-.04,.02-.07,.03-.01-.12-.18-.31-.18-.31l.07-.04Zm-1.94-.46s.07-.01,.11-.02c.29-.03,.8-.02,1.21,.36,.02,.02,.05,.05,.07,.07,.07,.07,.12,.14,.18,.22,.11,.16,.19,.32,.25,.48,.06,.16,.09,.31,.11,.44,.02,.11,.02,.19,.02,.26,0,.06,0,.1,0,.1h-1.38s0-.48-.16-.93c-.05-.15-.13-.3-.23-.43,.16,.12,.3,.29,.39,.53,.03,.07,.05,.15,.06,.24,0,.03,.01,.07,.01,.11,0,0,0-.02,0-.03,.04-.43-.17-.78-.39-1.04-.07-.08-.14-.14-.2-.2-.01-.01-.03-.02-.04-.03-.05-.04-.09-.07-.13-.1,0,0,.04-.01,.11-.02Zm-2.18,.09c.06-.05,.15-.1,.26-.15,.15-.07,.35-.13,.58-.13,.03,0,.06,0,.1,0,.09,0,.18,.02,.27,.05,.27,.08,.56,.25,.8,.56,.02,.03,.04,.06,.06,.09,.01,.02,.03,.04,.04,.07,.02,.03,.03,.05,.05,.08,.16,.3,.29,.69,.34,1.19h-.84s-.08,0-.12,.02c-.1,.04-.22,.12-.3,.25-.05,.09-.09,.19-.1,.33,0,.03,0,.06,0,.1,0,.05,0,.11,.02,.17,.11,.48,.62,1.02,1.14,1.2-.01,.07-.03,.13-.06,.18-.17,.36-.63,.5-1.07,.34-.05-.02-.11-.04-.16-.07,0-1.29,.1-2.77-.46-3.65,.09,.06,.17,.14,.26,.24,.18,.21,.33,.48,.33,.79,.01-.16,0-.35-.06-.53-.13-.44-.43-.88-.85-1.01-.11-.03-.22-.05-.35-.04,0,0,.04-.04,.12-.1Zm-1.89,.79s0-.02,.01-.02c.05-.08,.15-.2,.3-.31,.12-.09,.28-.16,.47-.2,.09-.02,.19-.03,.3-.03,.01,0,.02,0,.03,0,.33,0,.6,.1,.82,.28,.09,.08,.17,.17,.25,.28,.19,.27,.31,.65,.39,1.12,.15,.92,.1,2.17,.08,2.56,0,.08,0,.12,0,.12,0,0,0,0-.02,.02-.04,.03-.12,.1-.22,.18-.1,.07-.23,.14-.36,.19-.21,.07-.45,.08-.65-.1-.02-.02-.04-.03-.05-.05,.02-.18,.04-.36,.05-.52,.04-.55,.01-1.01-.06-1.38-.06-.35-.17-.63-.3-.85,.06,.06,.12,.12,.17,.19,.24,.32,.39,.75,.46,1.07,.02,.08,.03,.16,.04,.22,.01-.25,0-.52-.06-.79-.02-.11-.05-.23-.09-.34-.16-.49-.46-.95-.9-1.25-.11-.07-.23-.14-.36-.19-.11-.04-.23-.08-.35-.1,0,0,.01-.03,.04-.07Zm-2.62,1.93c.07-.43,.16-.77,.29-1.03,.09-.19,.2-.34,.34-.45,.12-.1,.25-.16,.4-.21,.27-.07,.6-.07,1.01,0,.01,0,.02,0,.04,0,.26,.05,.48,.15,.67,.28,.32,.24,.53,.58,.66,.89,.17,.4,.21,.74,.21,.74,0,0-.02-.04-.06-.11-.12-.21-.42-.68-.92-.91,.83,.7,.98,1.5,1,2.36,0,.24,0,.47,0,.72,0,0,0,.01,0,.02,0,.05,0,.09,0,.14-.08,.06-.16,.11-.24,.16-.14,.08-.28,.14-.42,.18-.08,.02-.16,.04-.23,.06-.32,.06-.62,.02-.86-.07-.12-.05-.23-.11-.33-.18-.04-.03-.07-.06-.1-.09,.25-.1,.73-.34,.73-.34,0,0,.03,.03,.06,.09,.02,.05,.04,.12,.04,.23,.1-.27,.15-.54,.11-.81-.04-.31-.18-.63-.47-.95-.03-.03-.06-.06-.09-.09-.01-.01-.03-.02-.04-.04-.03-.03-.06-.06-.09-.08,0,0-.01-.01-.02-.02-.13-.12-.25-.22-.36-.32-.21-.19-.37-.34-.49-.48-.17-.2-.26-.37-.28-.56-.05,.08-.08,.16-.09,.23-.03,.16,.01,.31,.06,.41,.04,.1,.09,.16,.09,.16l-.65,.31c.01-.08,.02-.16,.04-.24Zm-2.27,3.56l-.33,.12,.38-.03,.39-.03,.06,.08,1.87,2.51-4.69,.37-.58,.05h-.02s-.41,.03-.41,.03l-.24,.02h-.02s-.68,.05-.68,.05l-.32,.03-.42,.03h-.03s-.41,.03-.41,.03l-.4,.03h-.05s-.14,.01-.14,.01h0s-.04,0-.04,0h-.01s.01,0,.01,0h.04s.03-.03,.03-.03l.1-.04,.05-.02,.36-.13,.37-.13h.03s.38-.15,.38-.15l1.03-.37,.09-.03,.38-.13,.59-.21,.8-.28,.68-.24,.11-.04,.12,.08,.14,.1,.03,.02,.3,.13-.15-.21-.08-.12-.32-.45-1.15-1.6-.38-.52s2.2-.94,4.32-1.86c.43-.18,.85-.37,1.25-.54,.1,.06,.18,.12,.26,.19,.12,.1,.22,.21,.3,.31,.01,.02,.03,.03,.04,.05,.05,.07,.09,.13,.13,.19,.02,.04,.04,.07,.06,.1,.01,.02,.02,.04,.03,.05,.03,.06,.04,.09,.04,.09l-1.38,.77s.82-.32,1.44-.56c.01,.03,.02,.05,.03,.08,.04,.1,.04,.14,.04,.14l-1.41,.57-1.79,.73s.9-.31,1.84-.61c.56-.18,1.13-.37,1.52-.48,0,.05,.01,.09,.01,.13,.01,.16-.01,.19-.01,.19l-1.1,.4-3.08,1.12Zm3.42,1.78c-.72-.76-.85-1.3-.43-1.69,.43-.39,1.3-.19,1.3-.19,0,0-.44-.21-.97-.15,.18-.1,.31-.13,.75-.14,.12,0,.27,0,.45,0s.32,.03,.44,.08c.48,.2,.64,.72,.49,1.22,.21-.32,.24-.78-.07-1.31,0,0-.01-.02-.02-.03,.01,0,.02,.02,.03,.02,.42,.28,.46,.84,.27,1.33,.38-.48,.31-.94,.05-1.43,.42,.28,.37,.7,.37,1.23s-.36,1.03-1.24,1.35c.69-.1,1.14-.34,1.33-.87-.1,.56-.55,.95-1.49,1.22,.63,0,1.13-.1,1.39-.59,0,.47,.05,.56-.42,1.25-.47,.69-.86,1.41-.43,2.76,0-1.36,.66-2.34,.66-2.34,0,0-.29,1.8-.19,2.6-.88-.2-1.47-.54-1.47-.54-.3-.57-.35-1.24-.21-1.92s.09-1.08-.62-1.84Zm7.93,9.36s-.04,.03-.07,.06c-.01,.01-.03,.02-.04,.03,0,0,0,0,0,0-.08,.06-.19,.14-.32,.24-.16,.11-.37,.24-.61,.38-.11,.06-.23,.12-.35,.19-.03,.02-.06,.03-.1,.05-.12,.05-.24,.11-.36,.16-.33,.14-.71,.27-1.12,.38-.02-.23-.08-.49-.17-.74-.04-.12-.09-.25-.15-.37-.01-.02-.02-.04-.03-.07-.06-.12-.13-.24-.2-.36-.24-.38-.55-.74-.94-1.01-.18-.12-.37-.23-.57-.31-.02,0-.04-.01-.05-.02-.02,0-.03-.01-.05-.02,.02,0,.05,0,.07,.01,.03,0,.06,.01,.09,.02,.33,.07,.63,.15,.9,.24,.74,.24,1.3,.54,1.65,.76,.2,.12,.33,.22,.4,.28,.03,.03,.05,.04,.05,.04,0,0,0-.02-.02-.05-.03-.06-.1-.19-.23-.34-.21-.25-.58-.57-1.19-.86-.18-.09-.39-.17-.62-.25,0,0,0,0-.01,0-.01,0-.03,0-.04-.01-.26-.09-.53-.17-.79-.25-1.06-.33-2.12-.64-3.04-1.17-.3-.17-.58-.36-.84-.59-.03-.03-.07-.06-.1-.09-1.31-1.17-.37-2.59-.37-2.59-.1,.67-.02,1.19,.14,1.59,.39,.98,1.27,1.25,1.27,1.25,0,0-.04-.03-.09-.09-.2-.21-.66-.74-.88-1.27,.08,.11,.16,.22,.25,.32,.22,.24,.47,.45,.75,.63,.33,.21,.7,.39,1.12,.55,.12,.05,.24,.09,.37,.13,.22,.08,.46,.15,.7,.22,.57,.16,1.19,.32,1.87,.49,.2,.05,.41,.1,.62,.16,.05,.01,.11,.03,.16,.04,.17,.04,.33,.09,.48,.14,.01,0,.03,0,.04,.01,.19,.06,.37,.13,.53,.2,.54,.23,.92,.48,1.2,.73,.11,.1,.21,.2,.29,.3,.12,.14,.2,.27,.26,.39,.03,.06,.06,.12,.08,.17,.04,.11,.06,.19,.07,.24,0,.03,0,.05,0,.05,0,0,0,0-.02,.02Zm.58-.57s-.02,.03-.04,.04c-.06,.05-.12,.1-.18,.15,.02-.13,.03-.25,.04-.37,0-.01,0-.03,0-.04,0-.16,0-.31-.02-.46,0-.03,0-.05-.01-.08-.03-.14-.07-.27-.13-.39,0-.02-.02-.04-.03-.05-.16-.3-.41-.57-.81-.82-.11-.07-.24-.14-.37-.22,0,0-.01,0-.02-.01-.16-.08-.33-.16-.53-.25-.05-.02-.1-.04-.15-.06,.02,.01,.04,.03,.05,.04,.15,.11,.28,.22,.39,.32,.02,.02,.04,.03,.05,.05,.11,.1,.19,.21,.27,.3,.37,.47,.43,.85,.43,.85,0,0-.13-.24-.85-.61-.13-.07-.28-.14-.46-.21,0,0-.02,0-.03-.01-.15-.07-.33-.13-.52-.2-.27-.1-.57-.2-.92-.31-.32-.1-.66-.19-1.01-.28-.01,0-.03,0-.04-.01-.27-.07-.55-.14-.83-.21-1.88-.49-3.62-1.1-3.46-2.8,0-.02,0-.04,0-.05,0-.07,.02-.15,.04-.23,0,0,0,.09,.02,.23,.08,.49,.5,1.61,2.52,1.98-1.08-.36-1.51-.69-1.71-1.05-.04-.07-.07-.15-.09-.23,.49,.45,1.21,.73,2.11,.95,.77,.19,1.68,.33,2.69,.5,.03,0,.07,.01,.1,.02,.18,.03,.36,.06,.53,.09,.05,0,.09,.02,.14,.03,.13,.03,.26,.05,.39,.08,.42,.09,.8,.18,1.14,.28,.13,.04,.25,.08,.37,.12,0,0,0,0,.01,0,.07,.02,.13,.05,.19,.07,.15,.06,.28,.12,.41,.19,.35,.19,.58,.41,.69,.67,.03,.08,.06,.16,.08,.24,.04,.15,.06,.3,.06,.46,0,.03,0,.06,0,.1,0,.12-.02,.25-.06,.36-.02,.07-.04,.15-.07,.22-.09,.22-.22,.43-.4,.6Z"/>
      <polygon class="cls-1" points="21.07 8.8 21.05 8.77 20.86 8.58 20.71 8.43 20.68 8.39 20.58 8.29 19.62 7.31 20.58 8.29 20.68 8.39 20.71 8.43 20.86 8.58 21.05 8.77 21.07 8.8 21.07 8.8 21.07 8.8 21.07 8.8"/>
      <polygon class="cls-1" points="18.79 6.45 19.57 7.26 19.62 7.31 19.57 7.26 18.79 6.45"/>
      <path class="cls-2" d="M20.25,25.7s-.08-.09-.12-.13c-.1-.1-.21-.2-.31-.29-.39-.32-.82-.56-1.23-.74-.19-.08-.37-.15-.53-.21-.02,0-.03-.01-.04-.02-.27-.09-.5-.16-.66-.2-.16-.04-.25-.06-.25-.06,0,0,.06,.03,.16,.08,.11,.05,.26,.14,.43,.24,.01,0,.03,.02,.04,.03,.01,0,.02,.01,.03,.02,.13,.08,.27,.17,.41,.27,.33,.24,.7,.53,1.01,.88,.09,.1,.18,.21,.26,.32-.09-.11-.18-.21-.29-.31-.32-.31-.72-.57-1.18-.82-.16-.09-.34-.17-.52-.25-.01,0-.03-.01-.04-.02-.19-.08-.4-.16-.61-.24-.46-.17-.96-.32-1.5-.48-.33-.09-.64-.19-.91-.3-.1-.04-.19-.07-.27-.11-.39-.16-.71-.33-.95-.47-.09-.05-.18-.11-.25-.16,.06,.06,.09,.09,.09,.09,0,0-.88-.27-1.27-1.25-.16-.4-.24-.92-.14-1.59,0,0-.93,1.42,.37,2.59,.03,.03,.07,.06,.1,.09,.26,.22,.55,.42,.84,.59,.92,.53,1.98,.84,3.04,1.17,.26,.08,.53,.16,.79,.25,.01,0,.03,0,.04,.01,0,0,0,0,.01,0,.23,.08,.43,.16,.62,.25,.61,.29,.97,.62,1.19,.86,.13,.15,.2,.27,.23,.34,.02,.03,.02,.05,.02,.05,0,0-.02-.01-.05-.04-.07-.05-.2-.15-.4-.28-.36-.22-.91-.52-1.65-.76-.28-.09-.58-.17-.9-.24-.03,0-.06-.01-.09-.02-.02,0-.05,0-.07-.01,.02,0,.03,.01,.05,.02,.02,0,.04,.01,.05,.02,.21,.08,.4,.19,.57,.31,.39,.27,.7,.63,.94,1.01,.07,.12,.14,.24,.2,.36,.01,.02,.02,.04,.03,.07,.06,.12,.11,.25,.15,.37,.09,.26,.15,.51,.17,.74,.41-.11,.79-.24,1.12-.38,.13-.05,.25-.11,.36-.16,.03-.02,.06-.03,.1-.05,.13-.06,.24-.12,.35-.19,.24-.14,.45-.27,.61-.38,.14-.1,.25-.18,.32-.24-.03-.06-.06-.11-.09-.17-.11-.18-.24-.35-.38-.5Z"/>
      <path class="cls-5" d="M20.78,25.96c-.02-.05-.05-.11-.08-.17-.06-.12-.14-.25-.26-.39-.08-.1-.17-.2-.29-.3-.28-.25-.66-.5-1.2-.73-.16-.07-.34-.14-.53-.2-.01,0-.03,0-.04-.01-.15-.05-.31-.09-.48-.14-.06-.01-.11-.03-.16-.04-.21-.05-.42-.11-.62-.16-.68-.17-1.31-.33-1.87-.49-.25-.07-.48-.14-.7-.22-.13-.04-.25-.09-.37-.13-.42-.16-.79-.34-1.12-.55-.28-.18-.53-.39-.75-.63-.09-.1-.18-.21-.25-.32,.22,.53,.68,1.06,.88,1.27,.07,.05,.16,.1,.25,.16,.25,.15,.56,.31,.95,.47,.09,.04,.18,.07,.27,.11,.27,.1,.57,.21,.91,.3,.55,.15,1.05,.31,1.5,.48,.21,.08,.42,.16,.61,.24,.01,0,.03,.01,.04,.02,.18,.08,.35,.16,.52,.25,.46,.24,.86,.51,1.18,.82,.1,.1,.2,.2,.29,.31-.08-.11-.17-.22-.26-.32-.32-.35-.68-.64-1.01-.88-.15-.1-.29-.19-.41-.27-.01,0-.02-.01-.03-.02-.01,0-.03-.02-.04-.03-.18-.11-.33-.19-.43-.24-.1-.05-.16-.08-.16-.08,0,0,.09,.02,.25,.06,.16,.04,.39,.1,.66,.2,.01,0,.03,.01,.04,.02,.17,.06,.35,.13,.53,.21,.4,.18,.84,.43,1.23,.74,.11,.09,.21,.18,.31,.29,.04,.04,.08,.09,.12,.13,.14,.15,.27,.32,.38,.5,.03,.05,.06,.11,.09,.17,0,0,0,0,0,0,.02-.01,.03-.02,.04-.03,.03-.03,.05-.05,.07-.06,.02-.01,.02-.02,.02-.02,0,0,0-.02,0-.05,0-.05-.03-.13-.07-.24Z"/>
      <path class="cls-1" d="M11.57,22.88s.04,.04,.06,.06c.25,.26,.63,.57,1.18,.83h0c-.75-.61-1.58-1.37-1.58-1.37,0,0,.09,.2,.34,.47Z"/>
      <path class="cls-1" d="M20.99,22.09c.44-.38,.85-.79,1.22-1.24,.19-.23,.37-.47,.55-.72,1.2-1.74,1.88-3.87,1.8-6.15-.03-.77-.14-1.51-.32-2.22-.34,.11-.72,.23-1.14,.37,.15,.61,.24,1.24,.27,1.89,.1,2.85-1.14,5.43-3.15,7.16,0,0,0,0,0,0l-.46,.44,1.22,.47Z"/>
    </g>
    <g>
      <path class="cls-1" d="M6.36,23.64c.06-.42,.3-.79,.64-1.02-1.06-.94-1.94-2.08-2.59-3.36l-1.29,.06c.11,.24,.22,.47,.34,.7,.73,1.39,1.72,2.62,2.9,3.63Z"/>
      <path class="cls-1" d="M16.9,27.97h0s0-.31,0-.31h0c-.03-.12-.07-.27-.14-.43,0,0,0,0,0,0-.65,.12-1.31,.2-1.99,.22-4.91,.16-9.29-2.4-11.67-6.33,0,0,0,0,0,0-.26-.42-.64-1.08-.84-1.71H.96s.77,2,1.6,3.08c0,0,0,0,0,0,2.69,3.85,7.21,6.31,12.24,6.15,.7-.02,1.39-.1,2.07-.22,.01,0,.03,0,.04,0v-.44Z"/>
    </g>
  </g>
  <g>
    <rect class="cls-1" x="30.83" y="13.66" width="19.92" height=".57"/>
    <rect class="cls-1" x="30.83" y="11.67" width="19.92" height=".57"/>
    <rect class="cls-1" x="30.83" y="15.57" width="19.92" height=".57"/>
  </g>
</svg>