<?xml version="1.0" encoding="UTF-8"?>
<svg id="Layer_1" data-name="Layer 1" xmlns="http://www.w3.org/2000/svg" viewBox="0 0 62.14 59.75">
  <defs>
    <style>
      .cls-1 {
        fill: #fff;
      }

      .cls-2 {
        fill: #37b34a;
      }

      .cls-3 {
        fill: #a18043;
      }

      .cls-4 {
        fill: #cb5027;
      }

      .cls-5 {
        fill: #009345;
      }

      .cls-6 {
        fill: #e5cb80;
      }

      .cls-7 {
        fill: none;
      }

      .cls-8 {
        fill: #a2803d;
      }

      .cls-9 {
        fill: #f2eeee;
      }

      .cls-10 {
        fill: #f7971d;
      }

      .cls-11 {
        fill: #f3e5f0;
      }
    </style>
  </defs>
  <g>
    <path class="cls-7" d="M38.66,23.48c.13,.17,.25,.31,.33,.39,.19,.18,.29,.21,.61,.21,.12,0,.26,0,.45,0,.71,0,1.16-.08,1.01-.53-.06-.17-.15-.3-.25-.4-.03-.03-.07-.06-.1-.09-.13-.1-.23-.15-.23-.15l-.43-.04-1.22-.11h0s-.09,0-.09,0l-.54-.05h-.1s.03,.04,.09,.12c.03,.05,.07,.1,.12,.17,.1,.14,.23,.32,.35,.48Z"/>
    <polygon class="cls-7" points="57.19 9.45 57.12 9.47 57.05 9.5 57.05 9.5 57.12 9.47 57.19 9.45"/>
    <path class="cls-1" d="M28,2.55c.32-.02,.63-.04,.95-.05,5.16-.17,10.04,1.1,14.25,3.45,.11-.87,.59-1.64,1.28-2.13C39.88,1.23,34.53-.17,28.87,.02c-.41,.01-.82,.04-1.23,.07,.28,.45,.45,.97,.47,1.53,.01,.32-.03,.64-.11,.93Z"/>
    <path class="cls-4" d="M24.89,2.94c.05,0,.1,0,.15,0,.17,0,.33-.05,.48-.11,.43-.2,.72-.65,.71-1.15-.02-.68-.59-1.21-1.27-1.18-.68,.02-1.21,.59-1.18,1.27,.02,.62,.51,1.12,1.11,1.18Z"/>
    <path class="cls-4" d="M46.33,7.59c.68-.02,1.21-.59,1.18-1.27,0-.29-.12-.55-.3-.76-.13-.15-.3-.28-.5-.35-.15-.06-.31-.08-.47-.08-.68,.02-1.21,.59-1.18,1.27,.02,.68,.59,1.21,1.27,1.18Z"/>
    <path class="cls-1" d="M40.74,11.49c-.68-.4-1.38-.77-2.1-1.09,0,.56-.15,1.08-.42,1.54l2.52-.44Z"/>
    <path class="cls-1" d="M29.16,8.52c-4.65,.16-8.91,1.8-12.34,4.45-.5,.38-.97,.79-1.43,1.21-3.48,3.22-5.89,7.58-6.63,12.46,.32-.12,.66-.2,1.02-.21,.53-.02,1.03,.1,1.48,.32,1.45-8.68,8.87-15.44,17.99-15.75,1.12-.04,2.22,.02,3.29,.18-.06-.23-.1-.46-.11-.7-.02-.64,.15-1.25,.47-1.75-1.22-.17-2.47-.24-3.74-.2Z"/>
    <path class="cls-1" d="M11.77,35.22c-.27-.92-.48-1.87-.61-2.84-.36,.16-.76,.26-1.18,.28-.47,.02-.92-.08-1.32-.25,.15,1.26,.41,2.48,.76,3.66l2.34-.84Z"/>
    <path class="cls-1" d="M27.75,51.1s-.01,0-.02,0h-.02s0-.01,0-.01c-.78-.41-1.39-.75-1.84-1-1.96-1.28-3.01-2.68-3.01-2.68-3.7-1.48-6.83-4.11-8.95-7.45l-2.81,.13c1.39,2.55,3.29,4.79,5.56,6.58,.78,.61,1.6,1.17,2.46,1.67,2.61,1.53,5.57,2.51,8.71,2.81,0,0,.02,0,.03,0-.03-.01-.06-.02-.07-.03l-.04-.02Z"/>
    <path class="cls-1" d="M51.89,42.87c2.4-4.05,3.71-8.81,3.54-13.86-.07-1.99-.36-3.92-.86-5.76l-.64,.2s-.66,.21-1.73,.55c.43,1.63,.68,3.34,.74,5.1,.15,4.5-1,8.74-3.12,12.37,.86,.16,1.6,.68,2.06,1.4Z"/>
    <path class="cls-1" d="M15.7,8.6c.74,.42,1.3,1.12,1.51,1.98,3.43-2.26,7.5-3.63,11.9-3.78,1.98-.07,3.92,.12,5.77,.53,.98,.22,1.93,.5,2.85,.83,1.97,.71,3.82,1.69,5.5,2.89l3.29-.58c-4.69-4.03-10.84-6.38-17.49-6.15-.92,.03-1.83,.11-2.72,.24-.52,.07-1.04,.16-1.56,.27-3.29,.67-6.35,1.98-9.05,3.78Z"/>
    <path class="cls-1" d="M47.13,48.73c.43-.39,.84-.8,1.24-1.21-.83-.25-1.52-.83-1.9-1.6-.32,.33-.65,.65-.99,.97,.72,.47,1.3,1.11,1.65,1.85Z"/>
    <path class="cls-1" d="M17.89,52.46c3.82,2.04,8.21,3.13,12.85,2.98,1.1-.04,2.17-.14,3.23-.31-.67-.82-1.57-1.56-2.68-2.2-.21,.01-.42,.02-.63,.03-4.05,.14-7.89-.79-11.26-2.51-.19,.86-.75,1.59-1.5,2.02Z"/>
    <path class="cls-1" d="M12.96,14.18c-.79-.34-1.42-.99-1.71-1.81-4.5,4.79-7.17,11.29-6.93,18.36,.08,2.35,.48,4.61,1.14,6.75l2.34-.84c-.58-1.9-.93-3.91-1-5.99,0-.25-.01-.5-.01-.74,0-.28,0-.56,.01-.83,.19-5.72,2.49-10.94,6.16-14.89Z"/>
    <path class="cls-1" d="M55.07,13.83l-2.12,1.29c2.57,4.01,4.14,8.74,4.31,13.84,.21,6.35-1.76,12.27-5.25,17.04-.19,.26-.39,.52-.59,.78-1.15,1.46-2.44,2.8-3.86,4.01-.05,1.14-.55,2.66-2.14,4.44,0,.05,.01,.1,.02,.15,8.88-5.44,14.68-15.37,14.31-26.5-.19-5.54-1.88-10.68-4.67-15.04Z"/>
    <path class="cls-1" d="M51.75,9.55c-.77-.83-1.59-1.62-2.46-2.36-.23,.84-.8,1.54-1.56,1.93,.36,.31,.7,.63,1.05,.95l2.97-.52Z"/>
    <path class="cls-1" d="M45.39,53.95c-.08,.11-.17,.22-.26,.34,0,.01,0,.02,.02,.03,0,0,0,0,0,0l.02-.02s0,0,0,0l.18-.17h0c.6-.64,1-1.42,1.16-2.26-.2,.64-.56,1.33-1.12,2.07Z"/>
    <path class="cls-1" d="M2.5,30.8c-.29-8.52,3.37-16.27,9.32-21.5,.26-.23,.52-.45,.78-.66,2.86-2.33,6.2-4.1,9.86-5.13-.34-.48-.54-1.05-.56-1.68,0-.26,.02-.52,.07-.76C8.94,4.64-.46,16.8,.02,30.88c.09,2.81,.58,5.51,1.39,8.07l2.34-.85c-.73-2.31-1.16-4.76-1.25-7.3Z"/>
    <path class="cls-1" d="M40.19,57.91s0,0-.01-.01c-.09,.04-.18,.07-.28,.11,.1-.03,.19-.07,.29-.1Z"/>
    <path class="cls-4" d="M35.22,9.19c-.54,.14-.93,.64-.91,1.23,.02,.68,.59,1.21,1.27,1.18,.68-.02,1.21-.59,1.18-1.27-.01-.31-.13-.58-.33-.79-.23-.25-.57-.4-.94-.39-.09,0-.18,.02-.27,.04Z"/>
    <path class="cls-4" d="M14.22,12.54c.68-.02,1.21-.59,1.18-1.27-.02-.68-.59-1.21-1.27-1.18-.68,.02-1.21,.59-1.18,1.27,.02,.68,.59,1.21,1.27,1.18Z"/>
    <path class="cls-4" d="M11,30.05c.07-.17,.11-.35,.11-.54,0-.15-.04-.29-.09-.42-.19-.46-.65-.78-1.17-.76-.68,.02-1.21,.59-1.18,1.27,.02,.68,.59,1.21,1.27,1.18,.48-.02,.89-.31,1.08-.72Z"/>
    <path class="cls-4" d="M16.31,48.53s-.02,0-.03,0c-.66,.04-1.18,.6-1.16,1.26,.02,.68,.59,1.21,1.27,1.18,.68-.02,1.21-.59,1.18-1.27,0-.12-.03-.23-.06-.34-.17-.5-.65-.86-1.2-.84Z"/>
    <path class="cls-1" d="M40.77,46.1c-.2-.05-.41-.09-.62-.14,0,.02,0,.03,0,.03,0,0,.24,.04,.62,.11Z"/>
    <path class="cls-4" d="M49.3,45.76c.68-.02,1.21-.59,1.18-1.27-.02-.68-.59-1.21-1.27-1.18-.38,.01-.71,.19-.92,.47,0,0-.01,.02-.02,.03-.16,.21-.25,.48-.24,.77,.02,.68,.59,1.21,1.27,1.18Z"/>
    <polygon class="cls-1" points="57.45 10.23 57.38 10.26 57.45 10.24 57.53 10.22 57.62 10.18 57.94 10.02 57.93 10.02 57.61 10.16 57.45 10.23"/>
    <polygon class="cls-1" points="18.99 35.71 18.82 35.46 18.78 35.41 18.16 35.14 18.72 35.52 18.99 35.71"/>
    <path class="cls-4" d="M28.48,28.4s.05-.07,.03-.4c0-.08-.01-.16-.03-.27-.82,.25-2.01,.63-3.18,1.01-1.95,.64-3.84,1.27-3.84,1.27l3.74-1.53,2.94-1.2s0-.07-.08-.28c-.02-.05-.04-.1-.07-.16-1.29,.5-3.01,1.17-3.01,1.17l2.88-1.6s-.02-.07-.08-.2l-3.07,1.34-.99,.43-2.66,1.16,.9-.24,.06-.02,2.97-.81-3.61,1.74-2.25,1.08-.3,.14-.23,.11,.4,.69,.44,.76,1.55,2.69-.57-1.77-.14-.44,1.69,2.75-1.56,.37-.68,.16-.7-.29-.14-.06-.35-.15-.24-.1-.25-.1h-.05s-.23,.06-.23,.06l-.11,.02-1.49,.33-1.74,.38h3.38l-1.99,.36-.96,.17-1.23,.22-.18,.03-.84,.15-2.5,.45-.84,.15h-.07s-.82,.16-.82,.16l-.8,.15h-.05s-.05,.02-.05,.02l-.27,.09,.29-.02h.1s.84-.07,.84-.07l.86-.07h.07s.88-.07,.88-.07l.67-.05,1.42-.11h.04s.51-.04,.51-.04l.85-.07h.05s1.21-.1,1.21-.1l9.78-.77-3.9-5.23-.12-.16-.82,.06-.79,.06,.68-.25,6.42-2.33,2.29-.83Zm-7.55,4.29l.33,.46,2.62,3.63-3.64,.35-.76,.07-2.02,.19-3.77,.36,4.23-.64,.99-.15,3.54-.53,.6-.09-.34-.56-1.83-3.05-.37-.61,.43,.59Z"/>
    <path class="cls-10" d="M17.69,35.31l-4.45,1.55-.79,.27-.42,.15,.41-.17,.77-.32,2.2-.91-1.12,.35-.37,.12-.79,.25-.79,.25-2.38,.74-.8,.25-.06,.02-.78,.24-.77,.24-.05,.02h.05s.8-.15,.8-.15l.82-.15h.07s.84-.16,.84-.16l2.5-.45,.84-.15,.18-.03,1.23-.22,.96-.17,1.99-.36h-3.38l1.74-.38,1.49-.33,.11-.02,.23-.05h.05s.25,.09,.25,.09l.24,.1,.35,.15,.14,.06,.7,.29,.68-.16,1.56-.37-1.69-2.75,.14,.44,.57,1.77-1.55-2.69-.44-.76-.4-.69,.23-.11,.3-.14,2.25-1.08,3.61-1.74-2.97,.81-.06,.02-.9,.24,2.66-1.16,.99-.43,3.07-1.34s-.04-.07-.06-.11c-.03-.06-.07-.13-.12-.21-.07-.12-.16-.25-.26-.39-.03-.04-.05-.07-.08-.11l-.15,.06-.67,.27-8.14,3.26,3.47-1.05,1.71-.52-2.72,1.08-4.59,1.82-.05,.02,1.96,3.72,.29,.55,.21,.4,.2,.39,.03,.05,.18,.25-.27-.19-.56-.38-.11,.04-.37,.13Z"/>
    <polygon class="cls-1" points="7.49 38.35 7.54 38.34 8.3 38.1 9.08 37.85 9.15 37.83 9.95 37.58 12.33 36.84 13.12 36.59 13.91 36.34 14.28 36.23 15.4 35.88 13.2 36.79 12.43 37.11 12.02 37.28 12.44 37.13 13.23 36.86 17.69 35.31 18.06 35.18 18.16 35.14 18.1 35.1 17.8 34.89 17.55 34.72 17.32 34.8 15.9 35.31 14.24 35.9 13.02 36.33 12.24 36.61 12.04 36.68 9.9 37.45 9.11 37.73 9.05 37.75 8.27 38.03 7.53 38.29 7.43 38.33 7.22 38.4 7.15 38.42 7.07 38.45 7.05 38.46 7.07 38.46 7.16 38.45 7.17 38.45 7.44 38.37 7.49 38.35"/>
    <path class="cls-11" d="M18.37,34.62l-.29-.55-1.96-3.72,.05-.02,4.59-1.82,2.72-1.08-1.71,.52-3.47,1.05,8.14-3.26,.67-.27,.15-.06c-.17-.21-.38-.43-.63-.64-.16-.13-.34-.27-.54-.4-.84,.36-1.72,.75-2.61,1.13-4.42,1.91-9,3.88-9,3.88l.78,1.09,2.39,3.34,.67,.93,.17,.24,.31,.43-.2-.39-.21-.4Z"/>
    <polygon class="cls-1" points="22.7 35.77 23.04 36.33 22.44 36.42 18.9 36.96 17.91 37.11 13.68 37.75 17.45 37.39 19.47 37.19 20.24 37.12 23.88 36.77 21.26 33.15 20.93 32.69 20.5 32.1 20.87 32.72 22.7 35.77"/>
    <path class="cls-8" d="M31.37,20.89c.92,.62,1.53,1.58,1.87,2.6,.08,.23,.14,.47,.19,.71,.12,.57,.16,1.14,.13,1.65-.02-.13-.05-.29-.09-.46-.15-.66-.45-1.55-.96-2.22-.11-.15-.23-.28-.36-.4,.27,.46,.49,1.04,.62,1.77,.15,.79,.2,1.74,.12,2.88-.02,.35-.06,.71-.11,1.09,.04,.04,.08,.08,.11,.11,.41,.37,.9,.35,1.35,.2,.28-.1,.54-.25,.75-.39-.19-.22-.32-.45-.42-.72-.16-.46-.22-1.03-.25-1.81-.02-.49-.04-1.06-.07-1.74,0-.04,0-.08,0-.12-.17-2.81-2-3.93-2-3.93,0,0,.35,.43,.72,1.14,.28,.55,.57,1.27,.72,2.11-.4-1.56-1.15-2.54-1.82-3.13-.14-.12-.27-.23-.39-.32-.39-.28-.71-.43-.85-.48-.31,.22-.51,.47-.63,.65-.01,.02-.02,.03-.03,.05-.06,.09-.09,.15-.09,.15,.26,.05,.51,.12,.74,.21,.27,.11,.51,.24,.74,.39Z"/>
    <path class="cls-6" d="M31.88,20.23c.66,.59,1.41,1.57,1.82,3.13-.15-.84-.44-1.56-.72-2.11-.37-.72-.72-1.14-.72-1.14,0,0,1.83,1.12,2,3.93,0,.04,0,.08,0,.12,.03,.68,.05,1.25,.07,1.74,.04,.78,.09,1.35,.25,1.81,.1,.27,.23,.51,.42,.72,.22-.15,.39-.3,.47-.37,.03-.03,.05-.05,.05-.05,0,0,0-.09,.01-.26,.04-.82,.13-3.42-.17-5.34-.16-.98-.42-1.76-.81-2.33-.15-.22-.33-.42-.52-.57-.45-.37-1.02-.56-1.71-.58-.02,0-.05,0-.07,0-.23,0-.44,.02-.63,.06-.41,.08-.73,.24-.99,.42,.14,.06,.46,.2,.85,.48,.12,.09,.26,.2,.39,.32Z"/>
    <path class="cls-3" d="M28.21,39.13c-.31,1.42-.2,2.82,.43,4.01,0,0,1.23,.72,3.06,1.13-.21-1.66,.4-5.42,.4-5.42,0,0-1.4,2.04-1.38,4.89-.9-2.82-.08-4.32,.9-5.75,.97-1.43,.87-1.63,.87-2.6-.55,1.02-1.6,1.25-2.91,1.23,1.96-.56,2.9-1.38,3.1-2.55-.39,1.11-1.32,1.6-2.77,1.81,1.84-.67,2.59-1.72,2.59-2.82s.1-1.97-.76-2.56c.53,1.03,.67,1.99-.11,2.99,.4-1.02,.32-2.2-.56-2.77-.02-.02-.05-.03-.07-.05,.01,.02,.02,.04,.03,.06,.65,1.12,.58,2.08,.14,2.74,.3-1.03-.03-2.12-1.03-2.54-.26-.11-.57-.17-.92-.17-.37,0-.68,0-.93,0-.91,.02-1.19,.08-1.55,.29,1.11-.14,2.02,.31,2.02,.31,0,0-1.83-.42-2.72,.39-.89,.81-.6,1.94,.89,3.53,1.5,1.59,1.61,2.43,1.3,3.85Z"/>
    <path class="cls-6" d="M27.15,23.41c1.76,1.29,2.76,2.24,2.8,4.17,.08-.39,.1-.8,.05-1.2-.13-.99-.7-1.97-1.89-2.79,1.37,.37,2.5,1.43,2.5,3.08,0,.99-.02,1.74,.33,2.31,.14,.23,.34,.43,.63,.61,.17-.1,.33-.2,.5-.32,0-.1,0-.2,0-.3,0-.01,0-.03,0-.04,0-.51,0-1.01,0-1.5-.05-1.79-.36-3.47-2.09-4.92,1.05,.48,1.68,1.45,1.93,1.89,.08,.14,.12,.23,.12,.23,0,0-.08-.71-.43-1.54-.27-.64-.7-1.35-1.38-1.85-.38-.28-.84-.49-1.39-.59-.03,0-.05-.01-.08-.01-.86-.13-1.55-.14-2.1,.01-.32,.09-.6,.23-.84,.43-.01,.53,.16,1.48,1.35,2.34Z"/>
    <path class="cls-8" d="M25.59,23.67c-.09-.22-.18-.52-.12-.86,.03-.16,.08-.32,.19-.48,.04,.39,.22,.74,.59,1.16,.25,.29,.59,.62,1.03,1.01,.22,.2,.47,.42,.75,.66,.01,.01,.02,.02,.04,.03,.07,.06,.13,.12,.19,.17,.03,.03,.05,.05,.08,.08,.07,.06,.13,.13,.19,.2,.6,.66,.91,1.32,.99,1.98,.07,.57-.03,1.14-.24,1.7,0-.21-.04-.37-.09-.47-.06-.13-.13-.19-.13-.19,0,0-1,.51-1.53,.72,.06,.06,.13,.12,.21,.18,.2,.15,.43,.28,.68,.37,.51,.19,1.14,.27,1.8,.15,.16-.03,.32-.07,.48-.12,.29-.09,.58-.22,.87-.38-.29-.18-.49-.38-.63-.61-.35-.57-.33-1.32-.33-2.31,0-1.66-1.13-2.72-2.5-3.08,1.19,.82,1.76,1.8,1.89,2.79,.05,.4,.03,.81-.05,1.2-.03-1.93-1.04-2.88-2.8-4.17-1.18-.87-1.36-1.81-1.35-2.34-.28,.23-.51,.54-.7,.94-.26,.54-.45,1.25-.6,2.14-.03,.16-.05,.33-.08,.51l1.35-.65s-.1-.13-.18-.33Z"/>
    <polygon class="cls-1" points="44.01 18.4 43.96 18.35 44 18.41 44.3 18.86 44.53 18.94 44.01 18.4"/>
    <path class="cls-10" d="M42.88,19.9c.35-.13,.64-.24,.89-.34,.05-.02,.11-.04,.16-.06,.01,0,.02,0,.03-.01,0,0,0,0,0,0,.22-.08,.4-.15,.54-.2,0,0,0,0,0,0,.02,0,.04-.01,.06-.02,.18-.07,.27-.1,.27-.1l-.29,.17h-.01s-.02,.02-.02,.02l-.49,.29-.87,.51-.13,.08-.14,.08s.13,.39,.18,.8l.2-.1,1.84-.88,.74-.35,1.56-.74,.7-.33h.02s-.02,0-.02,0l-.74,.24-.66,.21-.99,.32-.07,.02-.78,.25,.65-.44,.05-.04,1.79-1.22-.43-1.04-.14-.35-.15-.36h-3.28l.13-.06,.05-.02,2-.86,.13-.06,.68-.29,.41-.18,.77-.33,2.2-.95,.77-.33h.03s.79-.36,.79-.36l1.9-.82,.46-.2,.79-.34,2.83-1.22,.07-.03-.08,.02-3.22,.73-.9,.2-.21,.05-2.51,.57-.23,.05-.69,.16-.79,.18-.9,.2-.61,.14-1.26,.29-.38,.09h-.04s-.99,.23-.99,.23l-.07,.02-1.01,.23h0s0,0,0,0l1.08-.17h.07s1.05-.17,1.05-.17l.19-.03,1.05-.16,.35-.05,2.38-.36-1.39,.39-1.3,.37-.3,.08-1.49,.42-.07,.02-.94,.27-2.04,.58-.53,.15h0s-.03,0-.03,0l.45,.67,1.14,1.71,.02,.03,.15,.19,.06,.08,.25,.31-.27-.3-.04-.05,.04,.05,.26,.34,.35,.44,.04,.05,.05,.07,.46,.59-.23-.07-.14-.04-.48-.15h-.04s-.02-.02-.02-.02l-.34,.18h0s0,0,0,0l-.76,.41-.14,.07s.33,.38,.37,.64c.05-.02,.09-.04,.14-.05Z"/>
    <polygon class="cls-9" points="44.53 18.94 44.07 18.35 44.02 18.28 43.98 18.23 43.63 17.79 43.37 17.45 43.33 17.4 43.31 17.38 43.11 17.17 40.4 14.22 40.36 14.18 39.67 13.44 40.24 13.34 42.83 12.9 43.32 12.81 43.93 12.71 44 12.69 45.07 12.51 46.34 12.29 48.42 11.93 49.29 11.78 50.16 11.63 49.31 11.8 48.2 12.02 46.24 12.41 45.2 12.62 44.17 12.83 44.1 12.84 43.35 12.99 43.04 13.06 40.46 13.57 40.26 13.61 40.69 14.14 41.24 14.81 43.15 17.14 43.18 17.17 43.15 17.14 42.02 15.43 41.57 14.75 41.6 14.75 41.6 14.75 42.13 14.59 44.18 14.01 45.11 13.75 45.18 13.73 46.67 13.31 46.97 13.22 48.26 12.86 49.65 12.46 47.27 12.83 46.93 12.88 45.88 13.04 45.68 13.07 44.63 13.23 44.55 13.24 43.47 13.41 43.46 13.41 43.47 13.41 44.48 13.18 44.55 13.16 45.54 12.94 45.59 12.93 45.97 12.84 47.24 12.55 47.85 12.42 48.74 12.21 49.53 12.03 50.22 11.88 50.46 11.82 52.97 11.26 53.18 11.21 54.09 11 57.3 10.28 57.38 10.26 57.45 10.23 57.61 10.16 57.93 10.02 57.58 10.08 57.41 10.11 57.26 10.13 54.51 10.59 53.85 10.7 52.9 10.86 50.12 11.33 50.02 11.34 49.04 11.51 48.88 11.53 46.73 11.89 45.43 12.11 44.74 12.23 43.65 12.41 43.57 12.42 42.45 12.61 39.93 13.03 38.93 13.2 38.93 13.2 38.93 13.2 39.19 13.46 40.83 15.14 40.93 15.24 42.94 17.3 43.13 17.5 43.21 17.58 43.51 17.89 43.9 18.29 43.96 18.35 43.96 18.35 43.96 18.35 44.01 18.4 44.53 18.94"/>
    <path class="cls-4" d="M57.38,10.26l-.07,.03-2.83,1.22-.79,.34-.46,.2-1.9,.82-.79,.34h-.03s-.77,.35-.77,.35l-2.2,.95-.77,.33-.41,.18-.68,.29-.13,.06-2,.86-.05,.02-.13,.06h3.28l.15,.36,.14,.35,.43,1.04-1.79,1.22-.05,.04-.65,.44,.78-.25,.07-.02,.99-.32,.66-.21,.74-.24h.02s-.02,0-.02,0l-.7,.33-1.56,.74-.74,.35-1.84,.88-.2,.1c.02,.12,.02,.25,.02,.37,.08-.03,.17-.07,.25-.1,.78-.31,1.46-.58,2.04-.81,.28-.11,.54-.21,.77-.3,.98-.39,1.5-.58,1.5-.58l-1.45,.68-.74,.35-2.09,.98-.24,.11v.55s.1,0,.26,0c.13,0,.31,.01,.52,.04,.05,0,.1,.01,.15,.02,.53,.09,.93,.35,1.13,.72,.08-.02,.16-.05,.24-.07,.37-.11,.73-.21,1.06-.31,.28-.08,.54-.16,.79-.23,.99-.29,1.78-.53,2.4-.72,.31-.09,.57-.17,.8-.24,.02,0,.04-.01,.05-.02,.35-.11,.61-.19,.8-.24,.35-.11,.48-.15,.48-.15l-1.56-2.16-1.71-2.37-.25-.35-.48-.67-.5,.11h-.02s-.27,.06-.27,.06l-.92,.2h-.06s.05-.01,.05-.01l.77-.38,.22-.11,.76-.38,2.11-1.06,.76-.38,.14-.07,.76-.38,2.26-1.13,.58-.29,.18-.09,2.71-1.36,.14-.07,.07-.04-.08,.02-.08,.02Z"/>
    <polygon class="cls-1" points="41.24 14.81 40.69 14.14 40.26 13.61 40.46 13.57 43.04 13.06 43.35 12.99 44.1 12.84 44.17 12.83 45.2 12.62 46.24 12.41 48.2 12.02 49.31 11.8 50.16 11.63 49.29 11.78 48.42 11.93 46.34 12.29 45.07 12.51 44 12.69 43.93 12.71 43.32 12.81 42.83 12.9 40.24 13.34 39.67 13.44 40.36 14.18 40.4 14.22 43.11 17.17 43.31 17.38 43.33 17.4 43.37 17.45 43.65 17.75 43.39 17.43 43.33 17.36 43.18 17.17 43.15 17.14 41.24 14.81"/>
    <path class="cls-6" d="M38.6,18.6c.07,.03,.14,.07,.22,.11,.6,.33,1.47,1.05,1.76,2.52,.08-.65-.12-1.36-.3-1.85,0-.03-.02-.05-.03-.07-.12-.31-.23-.52-.23-.52,0,0,.62,.28,.98,1.2,.07,.19,.14,.4,.18,.65,.05,.3,.13,.55,.22,.76,.12,.27,.27,.47,.43,.63,.08,.08,.17,.15,.25,.2h.45s0-.07,0-.2c0-.13-.02-.31-.05-.53-.04-.26-.11-.58-.24-.92-.12-.32-.29-.66-.52-.99-.11-.15-.23-.3-.37-.45-.05-.05-.1-.1-.15-.15-.86-.79-1.93-.81-2.52-.75-.09,.01-.17,.02-.24,.03-.14,.03-.23,.05-.23,.05,.08,.05,.18,.12,.28,.2,.03,.02,.06,.05,.09,.07Z"/>
    <path class="cls-8" d="M41.42,21.4c-.09-.21-.17-.46-.22-.76-.04-.25-.11-.46-.18-.65-.36-.92-.98-1.2-.98-1.2,0,0,.11,.2,.23,.52,0,.02,.02,.05,.03,.07,.18,.49,.38,1.2,.3,1.85-.29-1.47-1.17-2.19-1.76-2.52-.08-.04-.15-.08-.22-.11,.14,.12,.28,.25,.42,.41,.47,.53,.89,1.28,.81,2.16,0,.02,0,.04,0,.06,0-.08-.02-.15-.03-.22-.03-.18-.07-.35-.13-.5-.18-.52-.49-.87-.81-1.11,.21,.27,.36,.58,.47,.9,.34,.94,.34,1.93,.34,1.93h2.42c-.09-.06-.17-.12-.25-.2-.16-.15-.31-.36-.43-.63Z"/>
    <path class="cls-8" d="M34.4,18.76c.88,.27,1.52,1.17,1.78,2.1,.11,.37,.15,.75,.12,1.1,0-.65-.31-1.22-.7-1.65-.17-.19-.36-.36-.54-.49,1.18,1.84,.96,4.93,.96,7.61,.11,.06,.23,.11,.34,.15,.93,.33,1.88,.05,2.24-.71,.06-.12,.1-.24,.12-.38-1.09-.38-2.15-1.52-2.38-2.51-.03-.12-.04-.24-.05-.35,0-.07,0-.14,0-.21,.02-.28,.1-.51,.21-.69,.17-.28,.42-.45,.62-.52,.09-.03,.18-.05,.25-.05h.58c0-.09,0-.18-.02-.27-.01-.18-.03-.35-.06-.51,0-.02,0-.04,0-.05-.33-1.9-1.43-2.31-1.43-2.31,0,0,.68,1.18,.76,2.31,0,.13,.01,.25,0,.37-.02-.13-.04-.25-.06-.37-.05-.25-.11-.48-.18-.69-.6-1.75-1.92-2.32-2.53-2.49-.23,.1-.41,.22-.54,.32-.16,.12-.24,.21-.24,.21,.26-.02,.5,0,.72,.08Z"/>
    <path class="cls-6" d="M36.99,20.64c.07,.21,.13,.44,.18,.69,.02,.12,.04,.24,.06,.37,0-.12,0-.25,0-.37-.08-1.13-.76-2.31-.76-2.31,0,0,1.1,.41,1.43,2.31,0,.02,0,.04,0,.05,.03,.16,.05,.33,.06,.51,0,.09,.01,.18,.02,.27h1.17c-.11-1.06-.37-1.87-.71-2.49-.03-.06-.07-.12-.1-.17-.03-.05-.06-.1-.09-.14-.04-.07-.09-.13-.13-.19-.5-.66-1.1-1.01-1.67-1.17-.19-.05-.38-.09-.56-.1-.07,0-.14,0-.2,0-.49,0-.9,.12-1.22,.27,.61,.17,1.93,.74,2.53,2.49Z"/>
    <path class="cls-5" d="M45.65,51.9c.06-.25,.1-.5,.12-.76,0-.07,0-.13,0-.2,0-.32-.04-.64-.13-.95-.04-.17-.1-.33-.17-.5-.23-.55-.72-1-1.44-1.4-.25-.14-.54-.27-.85-.4-.13-.05-.26-.1-.4-.15,0,0-.02,0-.03,0-.24-.09-.5-.17-.77-.25-.7-.21-1.5-.41-2.38-.59-.26-.06-.54-.11-.81-.16-.1-.02-.19-.04-.29-.05-.36-.07-.73-.13-1.1-.2-.07-.01-.14-.02-.2-.04-2.12-.36-4.01-.66-5.62-1.05-1.87-.46-3.37-1.04-4.4-1.98,.05,.16,.11,.32,.19,.47,.4,.76,1.3,1.43,3.56,2.19-4.22-.77-5.08-3.12-5.25-4.13-.05-.29-.04-.47-.04-.47-.03,.16-.06,.32-.07,.48,0,.04-.01,.07-.01,.11,.19,1.14,.96,2.9,3.7,3.98,2.52,.99,4.29,1.35,5.32,1.47,.02,0,.05,0,.07,0,.68,.08,1.02,.05,1.02,.05,0,0-.27-.06-.69-.17-.8-.21-2.14-.61-3.15-1.1-.14-.07-.27-.14-.4-.21,1.99,.54,3.08,.72,4.65,.95,.48,.07,1,.15,1.6,.24,.01,0,.02,0,.03,0,.26,.04,.53,.08,.82,.13,0,0,.02,0,.03,0,.08,.01,.15,.02,.23,.04,.29,.05,.59,.1,.89,.16,.64,.13,1.29,.29,1.91,.52,.28,.1,.55,.21,.81,.34,0,0,.01,0,.02,0,.02,0,.04,.02,.06,.03,.25,.13,.49,.27,.71,.43,.68,.49,1.22,1.13,1.48,2,0,.01,0,.02,.01,.03,.08,.27,.13,.55,.15,.87,0,.06,0,.12,0,.18,.01,.32,0,.67-.06,1.04-.03,.22-.08,.45-.13,.7-.01,.04-.02,.09-.03,.13,.03-.03,.05-.05,.08-.08,.36-.36,.64-.79,.83-1.25,.06-.15,.11-.3,.15-.45Z"/>
    <path class="cls-2" d="M44.76,52.86c.05-.37,.07-.72,.06-1.04,0-.06,0-.12,0-.18-.02-.31-.07-.6-.15-.87,0-.01,0-.02-.01-.03-.26-.87-.79-1.51-1.48-2-.22-.16-.46-.3-.71-.43-.02,0-.04-.02-.06-.03,0,0-.01,0-.02,0-.26-.13-.53-.24-.81-.34-.62-.22-1.27-.39-1.91-.52-.3-.06-.6-.12-.89-.16-.08-.01-.15-.03-.23-.04,0,0-.02,0-.03,0-.29-.05-.56-.09-.82-.13-.01,0-.02,0-.03,0-.6-.09-1.12-.17-1.6-.24-1.57-.23-2.66-.41-4.65-.95,.12,.07,.26,.14,.4,.21,1.01,.5,2.35,.89,3.15,1.1,.42,.11,.69,.17,.69,.17,0,0-.34,.03-1.02-.05-.02,0-.04,0-.07,0-1.03-.12-2.8-.48-5.32-1.47-2.74-1.08-3.5-2.84-3.7-3.98-.34,3.55,3.31,4.81,7.22,5.83,.57,.15,1.15,.3,1.72,.44,.03,0,.06,.02,.09,.02,.72,.19,1.43,.37,2.1,.58,.73,.22,1.36,.43,1.92,.64,.4,.15,.75,.29,1.07,.42,.02,0,.04,.02,.06,.03,.36,.16,.68,.3,.95,.44,1.5,.76,1.78,1.27,1.78,1.27,0,0-.12-.78-.89-1.77-.16-.2-.35-.42-.57-.63-.04-.03-.07-.07-.11-.1-.24-.22-.51-.45-.82-.67-.04-.03-.07-.05-.11-.08,.1,.04,.2,.08,.3,.13,.4,.17,.77,.34,1.1,.51,.01,0,.03,.01,.04,.02,.28,.15,.54,.3,.77,.45,.83,.54,1.37,1.1,1.69,1.72,.02,.04,.04,.07,.06,.11,.13,.26,.21,.53,.27,.82,.01,.05,.02,.11,.03,.17,.05,.3,.06,.62,.05,.95,0,.03,0,.05,0,.08-.01,.25-.04,.5-.08,.77,.14-.1,.26-.2,.38-.31,.01-.04,.02-.09,.03-.13,.06-.24,.1-.47,.13-.7Z"/>
    <path class="cls-6" d="M45.18,24c-.43-.44-.77-.73-.77-.73l-.02,.19-.07,.7-.04,.43s.02-.18,0-.42c-.02-.28-.08-.64-.26-.91-.05-.08-.11-.14-.18-.2-.13-.11-.29-.18-.5-.2-.03,0-.06,0-.09,0h-2.25s.15,.05,.28,.2c.1,.11,.19,.27,.21,.5,.04,.53-.28,.83-1.02,.85-.03,0-.06,0-.09,0h-1.34c-.18,0-.34-.1-.6-.56-.06-.1-.12-.21-.19-.32-.02-.04-.05-.07-.07-.11-.1-.16-.2-.31-.28-.44-.11-.17-.2-.29-.2-.29,0,0-.17-.02-.36,.12,0,.05-.01,.11-.02,.18,0,.02,0,.04,0,.06-.02,.67,.21,1.79,1.85,2.26,.16,.05,.34,.09,.53,.12-.15-.05-.29-.11-.43-.17-.92-.47-1.36-1.32-1.36-1.32,0,0,.88,.91,2.46,1.32,.81,.21,1.81,.29,2.96,.05,.19-.04,.38-.08,.58-.14,.24-.07,.49-.15,.75-.25-.18,.21-.39,.37-.6,.5-.62,.37-1.26,.42-1.26,.42,0,0,.67,.16,1.47-.06,.28-.08,.59-.2,.88-.4,.13-.09,.27-.19,.4-.31-.12,.29-.3,.56-.49,.8-.14,.17-.3,.33-.45,.48-.59,.55-1.2,.87-1.2,.87,0,0,.24,.04,.57-.08,.28-.1,.61-.3,.92-.73-.01,.09-.02,.18-.03,.27-.17,1.41-.4,3.63-2.06,6.05,.24-.2,.46-.41,.65-.64,1.07-1.28,1.84-3.73,2.23-5.26,.06-.22,.1-.42,.14-.6,.06-.25,.1-.45,.12-.58,.04-.2,.05-.36,.05-.48,0-.39-.2-.51-.61-.93-.08-.08-.15-.16-.22-.23Z"/>
    <path class="cls-3" d="M44.91,26.4c-.31,.43-.64,.63-.92,.73-.33,.12-.57,.08-.57,.08,0,0,.61-.32,1.2-.87,.16-.14,.31-.3,.45-.48,.2-.24,.37-.51,.49-.8-.13,.12-.26,.22-.4,.31-.3,.2-.6,.32-.88,.4-.81,.22-1.47,.06-1.47,.06,0,0,.64-.05,1.26-.42,.21-.13,.42-.29,.6-.5-.26,.1-.51,.18-.75,.25-.2,.06-.39,.1-.58,.14-1.15,.24-2.15,.16-2.96-.05-1.58-.41-2.46-1.32-2.46-1.32,0,0,.44,.85,1.36,1.32,.13,.07,.27,.13,.43,.17-.19-.03-.37-.07-.53-.12-1.64-.47-1.87-1.58-1.85-2.26,0-.02,0-.04,0-.06,0-.06,0-.12,.02-.18-.06,.04-.11,.1-.17,.17-.09,.12-.17,.28-.24,.51-.19,.71,.4,1.42,1.28,1.76,.2,.08,.42,.14,.65,.18-.15,0-.3,0-.45-.03-.6-.11-1.06-.42-1.06-.42,0,0,.48,.66,1.55,1.11,.21,.09,.44,.17,.7,.23,.78,.2,1.78,.27,3.03,.01,.48-.1,.99-.24,1.54-.44-1.01,.89-1.64,1.19-2.58,1.31-.23,.03-.47,.05-.75,.06v.82s1.06,.84,2.74,.24c-1.62,1.05-3.52-.05-3.52-.05,0,0-2.92,1.48-4.51,4.84,.56-2.24,1.76-3.71,2.67-4.35,0,0-4.21,.96-3.26,6.11,2.55,1.36,3.8,1.08,5.17,.41-1.16,.33-2.93-.19-2.93-.19,0,0,3.66,.59,5.41-1.83-1.36,1.1-3.66,1.39-3.66,1.39,0,0,2.21-.62,3.76-1.88,.03-.02,.06-.05,.09-.07,1.66-2.42,1.89-4.65,2.06-6.05,.01-.09,.02-.19,.03-.27Z"/>
    <path class="cls-1" d="M35.79,56.62c-.08-.21-.18-.43-.3-.66,.11,.22,.2,.44,.28,.67,.19,.55,.3,1.11,.32,1.69,.05-.01,.07-.02,.07-.02,0,0,.02-.68-.37-1.67Z"/>
    <path class="cls-1" d="M29.16,50.9c-.53-.33-.94-.5-1.06-.55,.32,.17,.68,.36,1.06,.55Z"/>
    <path class="cls-1" d="M24.23,47.82l.03,.03s-.08-.09-.12-.13c.03,.03,.06,.07,.09,.1Z"/>
    <path class="cls-1" d="M46.51,51.87c.03-.11,.06-.22,.09-.32,.1-.41,.14-.79,.12-1.15,0-.06,0-.13-.01-.19-.03-.32-.11-.62-.22-.9-.33-.84-.97-1.47-1.66-1.85-.03-.02-.07-.04-.1-.05-.23-.12-.47-.24-.72-.34-.02,0-.04-.02-.05-.02-.28-.11-.56-.22-.84-.31-.09-.03-.19-.06-.28-.09-.34-.11-.67-.2-.97-.28-.43-.11-.8-.19-1.1-.25-.38-.08-.62-.11-.62-.11,0,0,0-.01,0-.03,0,0,0,0,0,0-.01-.09-.05-.41-.11-.88-.17-1.35-.46-3.89-.51-5.22-.07-1.87,.17-2.34,2.51-4.79,.08-.09,.16-.17,.24-.26,.32-.35,.62-.74,.92-1.14,.1-.14,.2-.28,.3-.43,1.63-2.43,2.83-5.61,3.05-8.28,.09-.03,.18-.06,.27-.09,.12-.04,.25-.08,.37-.12,.27-.09,.53-.17,.79-.25,.86-.28,1.66-.53,2.37-.76,.28-.09,.54-.17,.79-.25,.02,0,.04-.01,.05-.02,.29-.09,.55-.18,.8-.25,1.08-.34,1.71-.54,1.71-.54l-.72-1.02-3.17-4.45-.51-.71-.06-.08,.1-.06,1.27-.77,1.04-.63,.12-.08,.71-.43,2.13-1.29,.71-.43,6.82-4.14-4.31,.76h0s-.64,.11-.64,.11l-3.83,.68-.95,.17-2.91,.51-1,.18-.18,.03-1.02,.18-3.16,.56-1.11,.2h-.08s-1.16,.22-1.16,.22l-3.82,.67-.2,.04,.74,.77,.86,.89,3.47,3.62h.01s.11,.13,.11,.13h-.02s-.12,.08-.12,.08l-.69,.36-.14,.08s-.03-.05-.1-.12c-.24-.26-.93-.86-2.22-.95-.32-.02-.68,0-1.08,.05-.18,.03-.36,.06-.55,.1-.12,.03-.24,.06-.36,.09-.08-.08-.18-.16-.28-.23-.66-.45-1.65-.54-2.56-.34-.63,.14-1.21,.42-1.64,.82-.06,.06-.12,.12-.17,.18-.05,0-.09-.02-.14-.03-.26-.04-.52-.05-.77-.03-.41,.03-.81,.15-1.17,.32-.58,.28-1.06,.72-1.37,1.24-.01,.02-.02,.04-.03,.05-.04,.08-.08,.15-.12,.23-.12-.02-.23-.04-.34-.06-.92-.16-1.72-.18-2.4-.04-.71,.14-1.28,.46-1.68,.96-.1,.12-.18,.24-.26,.38-.54,.96-.78,2.32-.88,3.02-.04,.29-.05,.46-.05,.46l-.25,.1-10.23,4.19h-.01s.34,.46,.34,.46l3.31,4.41,.12,.16-.13,.04-4.13,1.48-.78,.28-1.07,.38-1.27,.45-.79,.28-.06,.02-.61,.22-.17,.06-.69,.25-.1,.03-.29,.1-.04,.02-.14,.05-1.09,.39-.78,.28-.15,.05-2.58,.92-.4,.14h.24s3.06-.15,3.06-.15h.19s.88-.05,.88-.05l2.65-.12,.88-.04h.07s.91-.04,.91-.04l2.74-.12,.94-.04,13.06-.59-4.68-6.28,1.8-.57s-.04,.41,.14,1.07c.18,.67,.59,1.6,1.5,2.63,1.81,2.04,1.54,2.21,1.32,4.02-.21,1.81-.2,2.7,.39,3.29-.05-.02-.09-.04-.14-.06-.1-.05-.2-.1-.29-.15-.46-.28-.85-.68-1.13-1.17-.36-.63-.54-1.41-.49-2.23-.87,.73-1.66,1.4-2.21,2.26-.56,.87-.87,1.92-.8,3.4,.02,.42,.1,.82,.22,1.19,.1,.29,.22,.57,.37,.83,0,0,1.72,1.58,3.29,2.86,.36,.21,.81,.46,1.34,.74,.01,0,.02,.01,.04,.02,.12,.05,.53,.22,1.06,.55,0,0,.02,.01,.03,.02,.21,.11,.42,.21,.64,.33,.24,.12,.49,.25,.75,.37,0,0,0,0,0,0,.07,.03,.14,.07,.21,.11,0,0,0,0,0,0,.02,.01,.05,.02,.07,.04,.17,.08,.33,.17,.5,.26,.03,.02,.06,.04,.1,.05,.41,.23,.8,.47,1.16,.72,.92,.65,1.68,1.37,2.25,2.16,.18,.25,.34,.5,.48,.75,.03,.05,.05,.09,.07,.14,.02,.03,.04,.07,.05,.1,0,0,0,0,0,0,.12,.23,.22,.45,.3,.66,.39,.99,.37,1.67,.37,1.67,0,0-.02,0-.07,.02,0,.26,0,.53-.04,.79,0,.02,0,.03,0,.05,.14-.03,.29-.06,.43-.09,1.08-.24,2.27-.58,3.43-1.05,.09-.04,.18-.07,.28-.11,.27-.12,.54-.24,.81-.37,.09-.04,.17-.08,.26-.13,.32-.17,.63-.34,.94-.53,.47-.29,.92-.61,1.34-.97,.19-.16,.38-.33,.56-.5,.06-.06,.12-.12,.18-.18,0,0,0,0,.01-.01,.02-.02,.03-.03,.05-.05,.06-.06,.12-.12,.18-.19,.15-.16,.3-.32,.43-.48,.01-.01,.03-.03,.04-.04,.05-.06,.1-.12,.15-.18,.09-.11,.18-.23,.26-.34,.56-.74,.92-1.44,1.12-2.07Zm-.55-26.23c-.02,.13-.06,.33-.12,.58-.04,.18-.09,.38-.14,.6-.39,1.53-1.16,3.97-2.23,5.26-.19,.23-.41,.44-.65,.64-.03,.02-.06,.05-.09,.07-1.55,1.26-3.76,1.88-3.76,1.88,0,0,2.31-.3,3.66-1.39-1.75,2.42-5.41,1.83-5.41,1.83,0,0,1.77,.53,2.93,.19-1.37,.67-2.63,.95-5.17-.41-.95-5.15,3.26-6.11,3.26-6.11-.91,.64-2.12,2.12-2.67,4.35,1.59-3.36,4.51-4.84,4.51-4.84,0,0,1.89,1.1,3.52,.05-1.68,.6-2.74-.24-2.74-.24v-.82c.27-.01,.52-.03,.75-.06,.93-.12,1.57-.42,2.58-1.31-.55,.2-1.06,.34-1.54,.44-1.25,.25-2.25,.19-3.03-.01-.26-.07-.49-.15-.7-.23-1.07-.45-1.55-1.11-1.55-1.11,0,0,.46,.32,1.06,.42,.14,.03,.29,.04,.45,.03-.23-.04-.44-.1-.65-.18-.88-.35-1.48-1.06-1.28-1.76,.06-.23,.15-.39,.24-.51,.06-.07,.11-.13,.17-.17,.19-.14,.36-.12,.36-.12,0,0,.08,.12,.2,.29,.08,.13,.18,.28,.28,.44,.02,.04,.05,.07,.07,.11,.07,.11,.14,.22,.19,.32,.26,.46,.42,.56,.6,.56h1.34s.06,0,.09,0c.74-.02,1.06-.33,1.02-.85-.02-.23-.11-.39-.21-.5-.13-.15-.28-.2-.28-.2h2.25s.06,0,.09,0c.21,.02,.37,.09,.5,.2,.07,.06,.13,.13,.18,.2,.18,.27,.24,.63,.26,.91,.02,.24,0,.42,0,.42l.04-.43,.07-.7,.02-.19s.34,.29,.77,.73c.07,.07,.15,.15,.22,.23,.41,.42,.6,.54,.61,.93,0,.13-.01,.28-.05,.48Zm-7.86-2.95h.1s.54,.06,.54,.06h.09s0,0,0,0l1.22,.11,.43,.04s.11,.04,.23,.15c.03,.03,.06,.05,.1,.09,.1,.1,.19,.23,.25,.4,.15,.46-.3,.53-1.01,.53-.19,0-.34,0-.45,0-.32,0-.42-.04-.61-.21-.08-.08-.2-.23-.33-.39-.12-.16-.25-.34-.35-.48-.05-.06-.08-.12-.12-.17-.05-.08-.09-.13-.09-.13Zm18.95-13.2l.07-.03,.07-.02-.07,.02-.07,.03h0Zm-14.54,9.75l.76-.41h0s0,0,0,0l.34-.18h.02s.04,.02,.04,.02l.48,.15,.14,.04-.3-.45-.04-.06h0s-.05-.06-.05-.06l-.39-.4-.31-.31-.08-.08-.2-.2-2.01-2.06-.1-.1-1.64-1.68-.25-.26h0s0,0,0,0l1-.17,2.52-.42,1.13-.19h.08s1.09-.19,1.09-.19l.69-.12,1.3-.22,2.15-.36,.16-.03,.98-.16,.1-.02,2.78-.47,.95-.16,.66-.11,2.75-.46,.15-.03,.18-.03,.35-.06h.01s-.32,.16-.32,.16l-.09,.05-.07,.04-.14,.07-2.71,1.36-.18,.09-.58,.29-2.26,1.13-.76,.38-.14,.07-.76,.38-2.11,1.06-.76,.38-.22,.11-.77,.38-.05,.03h.06s.92-.21,.92-.21l.27-.06h.02s.5-.11,.5-.11l.48,.67,.25,.35,1.71,2.37,1.56,2.16s-.13,.04-.48,.15c-.19,.06-.45,.14-.8,.24-.02,0-.04,.01-.05,.02-.23,.07-.49,.15-.8,.24-.62,.19-1.41,.42-2.4,.72-.25,.07-.51,.15-.79,.23-.33,.1-.69,.2-1.06,.31-.08,.02-.16,.05-.24,.07-.2-.37-.59-.62-1.13-.72-.05,0-.1-.02-.15-.02-.21-.03-.38-.04-.52-.04-.16,0-.26,0-.26,0v-.55l.24-.11,2.09-.98,.74-.35,1.45-.68s-.52,.2-1.5,.58c-.23,.09-.49,.19-.77,.3-.58,.23-1.26,.5-2.04,.81-.08,.03-.17,.07-.25,.1,0-.12,0-.24-.02-.37-.05-.41-.18-.8-.18-.8l.14-.08,.13-.08,.87-.51,.49-.29h.02s.01-.02,.01-.02l.29-.17s-.09,.03-.27,.1c-.02,0-.04,.01-.06,.02,0,0,0,0,0,0-.14,.05-.31,.12-.54,.2,0,0,0,0,0,0-.01,0-.02,0-.03,.01-.05,.02-.1,.04-.16,.06-.25,.09-.55,.21-.89,.34-.05,.02-.09,.03-.14,.05-.03-.26-.37-.64-.37-.64l.14-.07Zm-4.05-.97c.07-.01,.15-.02,.24-.03,.6-.07,1.66-.04,2.52,.75,.05,.05,.1,.1,.15,.15,.14,.15,.26,.3,.37,.45,.23,.33,.4,.67,.52,.99,.12,.34,.2,.65,.24,.92,.03,.22,.05,.4,.05,.53,0,.13,0,.2,0,.2h-2.88s0-.99-.34-1.93c-.11-.32-.27-.63-.47-.9,.32,.24,.63,.6,.81,1.11,.05,.15,.1,.32,.13,.5,.01,.07,.02,.14,.03,.22,0-.02,0-.04,0-.06,.08-.89-.34-1.64-.81-2.16-.14-.16-.28-.29-.42-.41-.03-.03-.06-.05-.09-.07-.1-.08-.2-.15-.28-.2,0,0,.08-.02,.23-.05Zm-4.54,.19c.13-.1,.31-.22,.54-.32,.32-.15,.73-.27,1.22-.27,.07,0,.13,0,.2,0,.18,.01,.37,.04,.56,.1,.57,.16,1.17,.52,1.67,1.17,.05,.06,.09,.12,.13,.19,.03,.05,.06,.09,.09,.14,.03,.06,.07,.11,.1,.17,.34,.62,.6,1.44,.71,2.49h-1.75c-.07,0-.16,.02-.25,.05-.21,.08-.45,.24-.62,.52-.11,.18-.19,.41-.21,.69,0,.07,0,.13,0,.21,0,.11,.02,.23,.05,.35,.23,1,1.29,2.14,2.38,2.51-.03,.14-.07,.26-.12,.38-.36,.75-1.31,1.04-2.24,.71-.11-.04-.23-.09-.34-.15,0-2.68,.22-5.78-.96-7.61,.18,.13,.36,.3,.54,.49,.38,.43,.7,1,.7,1.65,.03-.34-.02-.72-.12-1.1-.26-.93-.9-1.83-1.78-2.1-.23-.07-.47-.1-.72-.08,0,0,.08-.09,.24-.21Zm-3.95,1.66s.02-.03,.03-.05c.11-.17,.31-.42,.63-.65,.25-.18,.58-.34,.99-.42,.19-.04,.4-.06,.63-.06,.02,0,.05,0,.07,0,.69,.01,1.26,.2,1.71,.58,.19,.16,.36,.35,.52,.57,.39,.57,.65,1.35,.81,2.33,.3,1.92,.21,4.52,.17,5.34,0,.16-.01,.26-.01,.26,0,0-.02,.02-.05,.05-.08,.07-.24,.22-.47,.37-.21,.15-.47,.3-.75,.39-.44,.15-.93,.16-1.35-.2-.04-.03-.08-.07-.11-.11,.05-.38,.08-.74,.11-1.09,.08-1.14,.03-2.1-.12-2.88-.14-.73-.35-1.32-.62-1.77,.13,.12,.25,.26,.36,.4,.51,.67,.81,1.56,.96,2.22,.04,.17,.07,.33,.09,.46,.03-.51-.01-1.08-.13-1.65-.05-.24-.11-.47-.19-.71-.34-1.02-.95-1.99-1.87-2.6-.23-.15-.48-.29-.74-.39-.23-.09-.48-.16-.74-.21,0,0,.03-.06,.09-.15Zm-5.47,4.02c.15-.89,.34-1.6,.6-2.14,.19-.4,.42-.71,.7-.94,.24-.2,.52-.34,.84-.43,.56-.15,1.24-.15,2.1-.01,.03,0,.05,.01,.08,.01,.55,.1,1.01,.31,1.39,.59,.68,.5,1.11,1.21,1.38,1.85,.35,.83,.43,1.54,.43,1.54,0,0-.04-.09-.12-.23-.25-.44-.88-1.41-1.93-1.89,1.73,1.45,2.04,3.13,2.09,4.92,.01,.49,0,.99,0,1.5,0,.01,0,.03,0,.04,0,.1,0,.2,0,.3-.17,.12-.33,.23-.5,.32-.29,.17-.59,.29-.87,.38-.16,.05-.32,.09-.48,.12-.67,.12-1.29,.05-1.8-.15-.26-.1-.49-.22-.68-.37-.08-.06-.15-.12-.21-.18,.53-.21,1.53-.72,1.53-.72,0,0,.07,.05,.13,.19,.05,.1,.09,.26,.09,.47,.21-.56,.31-1.12,.24-1.7-.08-.66-.38-1.32-.99-1.98-.06-.07-.12-.13-.19-.2-.03-.03-.05-.05-.08-.08-.06-.06-.12-.12-.19-.17-.01-.01-.02-.02-.04-.03-.28-.24-.53-.46-.75-.66-.44-.39-.77-.72-1.03-1.01-.36-.42-.55-.77-.59-1.16-.1,.16-.16,.32-.19,.48-.06,.34,.02,.64,.12,.86,.09,.2,.18,.33,.18,.33l-1.35,.65c.03-.18,.05-.34,.08-.51Zm-4.74,7.42l-.68,.25,.79-.06,.82-.06,.12,.16,3.9,5.23-9.78,.77-1.21,.09h-.05s-.85,.07-.85,.07l-.51,.04h-.04s-1.42,.11-1.42,.11l-.67,.05-.88,.07h-.07s-.86,.07-.86,.07l-.84,.07h-.1s-.29,.03-.29,.03h0s-.09,0-.09,0h-.03s.02,0,.02,0l.08-.03,.06-.02,.21-.07,.1-.03,.75-.27,.77-.27,.06-.02,.79-.28,2.15-.77,.19-.07,.78-.28,1.22-.44,1.66-.59,1.42-.51,.23-.08,.25,.17,.3,.21,.06,.04,.62,.27-.31-.43-.17-.24-.67-.93-2.39-3.34-.78-1.09s4.58-1.96,9-3.88c.89-.38,1.77-.77,2.61-1.13,.2,.13,.38,.26,.54,.4,.26,.22,.47,.43,.63,.64,.03,.04,.06,.07,.08,.11,.11,.14,.19,.27,.26,.39,.05,.08,.09,.15,.12,.21,.02,.04,.04,.08,.06,.11,.06,.12,.08,.2,.08,.2l-2.88,1.6s1.72-.67,3.01-1.17c.03,.06,.05,.11,.07,.16,.08,.21,.08,.28,.08,.28l-2.94,1.2-3.74,1.53s1.89-.64,3.84-1.27c1.17-.38,2.36-.76,3.18-1.01,.01,.1,.02,.19,.03,.27,.02,.33-.03,.4-.03,.4l-2.29,.83-6.42,2.33Zm7.14,3.71c-1.5-1.59-1.78-2.72-.89-3.53,.89-.81,2.72-.39,2.72-.39,0,0-.91-.45-2.02-.31,.37-.21,.64-.27,1.55-.29,.26,0,.56,0,.93,0s.66,.06,.92,.17c.99,.41,1.33,1.51,1.03,2.54,.44-.66,.51-1.62-.14-2.74-.01-.02-.02-.04-.03-.06,.02,.01,.05,.03,.07,.05,.88,.58,.96,1.75,.56,2.77,.79-1,.64-1.96,.11-2.99,.87,.59,.76,1.46,.76,2.56s-.75,2.15-2.59,2.82c1.45-.22,2.39-.71,2.77-1.81-.21,1.16-1.14,1.99-3.1,2.55,1.31,.02,2.36-.21,2.91-1.23,0,.97,.11,1.17-.87,2.6-.97,1.43-1.8,2.94-.9,5.75-.02-2.85,1.38-4.89,1.38-4.89,0,0-.61,3.76-.4,5.42-1.83-.41-3.06-1.13-3.06-1.13-.63-1.19-.74-2.59-.43-4.01s.19-2.26-1.3-3.85Zm16.55,19.52s-.08,.07-.15,.12c-.03,.02-.05,.04-.09,.07,0,0,0,0,0,0-.16,.13-.39,.3-.68,.5-.34,.23-.76,.5-1.27,.79-.23,.13-.48,.26-.74,.39-.07,.03-.13,.07-.2,.1-.24,.11-.49,.23-.76,.34-.7,.29-1.48,.57-2.34,.79-.05-.49-.17-1.01-.35-1.55-.09-.26-.19-.52-.31-.78-.02-.05-.04-.09-.07-.14-.12-.25-.26-.51-.42-.75-.5-.8-1.16-1.54-1.97-2.11-.37-.26-.76-.47-1.19-.65-.04-.02-.08-.03-.11-.04-.03-.01-.06-.03-.1-.04,.05,0,.1,.02,.15,.03,.06,.01,.12,.02,.18,.04,.68,.14,1.31,.31,1.88,.5,1.54,.5,2.71,1.13,3.45,1.59,.41,.26,.7,.47,.84,.58,.07,.06,.11,.09,.11,.09,0,0-.02-.04-.05-.11-.07-.13-.22-.39-.49-.7-.44-.52-1.2-1.2-2.47-1.8-.38-.18-.81-.35-1.28-.52-.01,0-.02,0-.03-.01-.03,0-.05-.02-.08-.03-.55-.18-1.1-.35-1.65-.52-2.21-.68-4.41-1.34-6.34-2.44-.62-.36-1.21-.76-1.76-1.23-.07-.06-.14-.12-.21-.18-2.72-2.44-.78-5.4-.78-5.4-.2,1.4-.04,2.48,.3,3.31,.82,2.04,2.66,2.61,2.66,2.61,0,0-.07-.07-.19-.2-.41-.44-1.38-1.55-1.84-2.65,.16,.24,.34,.46,.53,.67,.45,.5,.97,.93,1.57,1.31,.69,.44,1.47,.81,2.34,1.14,.25,.09,.5,.19,.77,.28,.47,.16,.96,.31,1.47,.46,1.18,.34,2.49,.67,3.91,1.03,.42,.11,.86,.22,1.3,.33,.11,.03,.23,.06,.34,.09,.35,.09,.68,.19,.99,.29,.03,0,.06,.02,.09,.03,.4,.13,.77,.27,1.11,.42,1.12,.48,1.92,1.01,2.5,1.52,.24,.21,.43,.42,.6,.62,.24,.29,.42,.56,.54,.8,.07,.13,.12,.25,.16,.36,.09,.23,.13,.4,.15,.51,.01,.07,.01,.1,.01,.1,0,0-.02,.02-.05,.04Zm1.21-1.19s-.05,.05-.08,.08c-.12,.11-.25,.22-.38,.31,.04-.27,.06-.52,.08-.77,0-.03,0-.05,0-.08,.01-.33,0-.65-.05-.95,0-.06-.02-.11-.03-.17-.06-.28-.15-.56-.27-.82-.02-.04-.04-.07-.06-.11-.32-.62-.86-1.18-1.69-1.72-.23-.15-.49-.3-.77-.45-.01,0-.03-.01-.04-.02-.33-.17-.7-.34-1.1-.51-.1-.04-.2-.08-.3-.13,.04,.03,.07,.05,.11,.08,.31,.22,.58,.45,.82,.67,.04,.03,.07,.07,.11,.1,.22,.22,.41,.43,.57,.63,.77,.99,.89,1.77,.89,1.77,0,0-.28-.51-1.78-1.27-.27-.14-.59-.29-.95-.44-.02,0-.04-.02-.06-.03-.32-.14-.68-.28-1.07-.42-.56-.2-1.19-.42-1.92-.64-.68-.2-1.38-.39-2.1-.58-.03,0-.06-.02-.09-.02-.57-.15-1.15-.29-1.72-.44-3.91-1.03-7.56-2.29-7.22-5.83,0-.04,0-.07,.01-.11,.02-.16,.04-.31,.07-.48,0,0,0,.18,.04,.47,.17,1.01,1.04,3.36,5.25,4.13-2.25-.76-3.16-1.44-3.56-2.19-.08-.15-.14-.31-.19-.47,1.03,.94,2.52,1.52,4.4,1.98,1.61,.39,3.5,.69,5.62,1.05,.07,.01,.14,.02,.2,.04,.38,.07,.75,.13,1.1,.2,.1,.02,.19,.04,.29,.05,.28,.05,.55,.11,.81,.16,.88,.18,1.67,.38,2.38,.59,.27,.08,.52,.17,.77,.25,0,0,.02,0,.03,0,.14,.05,.27,.1,.4,.15,.31,.13,.59,.26,.85,.4,.72,.4,1.21,.86,1.44,1.4,.07,.16,.12,.33,.17,.5,.08,.31,.13,.63,.13,.95,0,.07,0,.13,0,.2-.01,.26-.05,.51-.12,.76-.04,.15-.09,.31-.15,.45-.19,.47-.46,.89-.83,1.25Z"/>
    <polygon class="cls-1" points="43.96 18.35 43.9 18.29 43.51 17.89 43.21 17.58 43.13 17.5 42.94 17.3 40.93 15.24 42.94 17.3 43.13 17.5 43.21 17.58 43.51 17.89 43.9 18.29 43.96 18.35 43.96 18.35 43.96 18.35 43.96 18.35"/>
    <polygon class="cls-1" points="39.19 13.46 40.83 15.14 40.93 15.24 40.83 15.14 39.19 13.46"/>
    <path class="cls-2" d="M42.25,53.6c-.08-.09-.17-.18-.25-.27-.21-.21-.43-.41-.66-.6-.81-.67-1.72-1.17-2.56-1.55-.39-.17-.76-.32-1.11-.45-.03-.01-.06-.02-.09-.03-.56-.2-1.04-.33-1.38-.41-.33-.08-.52-.12-.52-.12,0,0,.13,.06,.34,.17,.22,.11,.53,.28,.9,.51,.03,.02,.06,.03,.09,.05,.02,.01,.05,.03,.07,.04,.27,.16,.56,.36,.86,.57,.7,.49,1.45,1.1,2.11,1.83,.19,.21,.38,.43,.55,.66-.18-.22-.38-.43-.6-.64-.67-.64-1.49-1.2-2.46-1.7-.34-.18-.7-.35-1.08-.51-.03-.01-.06-.03-.09-.04-.41-.17-.83-.34-1.28-.51-.95-.35-2-.68-3.14-1-.7-.19-1.33-.41-1.9-.62-.2-.08-.39-.15-.57-.23-.81-.34-1.47-.68-1.99-.98-.19-.11-.37-.22-.53-.32,.12,.12,.19,.2,.19,.2,0,0-1.84-.56-2.66-2.61-.33-.84-.5-1.92-.3-3.31,0,0-1.95,2.97,.78,5.4,.07,.06,.14,.12,.21,.18,.55,.47,1.14,.87,1.76,1.23,1.92,1.11,4.13,1.76,6.34,2.44,.55,.17,1.1,.34,1.65,.52,.03,0,.05,.02,.08,.03,.01,0,.02,0,.03,.01,.48,.16,.9,.33,1.28,.52,1.27,.6,2.03,1.28,2.47,1.8,.27,.32,.42,.57,.49,.7,.04,.07,.05,.11,.05,.11,0,0-.04-.03-.11-.09-.14-.11-.42-.32-.84-.58-.74-.46-1.91-1.09-3.45-1.59-.58-.19-1.2-.36-1.88-.5-.06-.01-.12-.02-.18-.04-.05,0-.1-.02-.15-.03,.03,.01,.06,.03,.1,.04,.04,.01,.08,.03,.11,.04,.43,.17,.82,.39,1.19,.65,.81,.57,1.47,1.31,1.97,2.11,.15,.25,.29,.5,.42,.75,.02,.05,.05,.09,.07,.14,.12,.26,.22,.52,.31,.78,.18,.53,.3,1.06,.35,1.55,.86-.23,1.64-.5,2.34-.79,.27-.11,.52-.23,.76-.34,.07-.03,.14-.07,.2-.1,.26-.13,.51-.26,.74-.39,.51-.28,.93-.55,1.27-.79,.29-.2,.52-.37,.68-.5-.06-.12-.13-.23-.2-.35-.23-.38-.49-.73-.78-1.05Z"/>
    <path class="cls-5" d="M43.35,54.15c-.04-.11-.1-.23-.16-.36-.13-.24-.3-.51-.54-.8-.17-.2-.36-.41-.6-.62-.58-.51-1.38-1.05-2.5-1.52-.34-.14-.71-.28-1.11-.42-.03,0-.06-.02-.09-.03-.31-.1-.64-.2-.99-.29-.12-.03-.23-.06-.34-.09-.44-.11-.88-.22-1.3-.33-1.42-.36-2.72-.69-3.91-1.03-.51-.15-1-.3-1.47-.46-.26-.09-.52-.18-.77-.28-.87-.33-1.65-.7-2.34-1.14-.59-.38-1.11-.81-1.57-1.31-.19-.21-.37-.43-.53-.67,.45,1.1,1.43,2.21,1.84,2.65,.15,.1,.33,.21,.53,.32,.52,.3,1.18,.65,1.99,.98,.18,.08,.37,.15,.57,.23,.57,.22,1.2,.43,1.9,.62,1.14,.32,2.18,.65,3.14,1,.45,.16,.87,.33,1.28,.51,.03,.01,.06,.03,.09,.04,.38,.16,.74,.34,1.08,.51,.97,.5,1.79,1.06,2.46,1.7,.22,.2,.42,.42,.6,.64-.17-.23-.36-.45-.55-.66-.66-.72-1.42-1.34-2.11-1.83-.3-.21-.6-.4-.86-.57-.02-.01-.05-.03-.07-.04-.03-.02-.06-.04-.09-.05-.37-.22-.68-.39-.9-.51-.22-.11-.34-.17-.34-.17,0,0,.19,.03,.52,.12,.34,.08,.82,.22,1.38,.41,.03,.01,.06,.02,.09,.03,.35,.12,.72,.27,1.11,.45,.84,.38,1.75,.89,2.56,1.55,.23,.19,.45,.39,.66,.6,.09,.09,.17,.18,.25,.27,.29,.32,.55,.67,.78,1.05,.07,.11,.13,.23,.2,.35,0,0,0,0,0,0,.03-.03,.06-.05,.09-.07,.06-.05,.11-.1,.15-.12,.03-.03,.05-.04,.05-.04,0,0,0-.04-.01-.1-.02-.1-.06-.28-.15-.51Z"/>
    <path class="cls-1" d="M24.14,47.72s.08,.09,.12,.13c.52,.54,1.31,1.19,2.47,1.74h0c-1.57-1.28-3.29-2.86-3.29-2.86,0,0,.2,.42,.71,.99Z"/>
    <path class="cls-1" d="M43.79,46.08c.92-.79,1.77-1.65,2.54-2.59,.4-.48,.78-.98,1.14-1.5,2.51-3.64,3.92-8.08,3.76-12.83-.05-1.6-.28-3.15-.67-4.63-.71,.23-1.51,.48-2.37,.76,.32,1.27,.51,2.59,.55,3.95,.2,5.94-2.38,11.33-6.56,14.94,0,0,0,0,.01,0l-.96,.91,2.55,.98Z"/>
  </g>
  <g>
    <path class="cls-1" d="M13.28,49.31c.12-.88,.62-1.65,1.33-2.13-2.22-1.96-4.06-4.33-5.39-7.01l-2.69,.12c.22,.49,.45,.98,.7,1.45,1.52,2.9,3.59,5.47,6.05,7.57Z"/>
    <path class="cls-1" d="M35.26,58.34h0s-.02-.64-.02-.64h.01c-.05-.25-.14-.55-.29-.91,0,0-.01,0-.02,0-1.35,.25-2.74,.41-4.15,.46-10.24,.34-19.37-5.01-24.35-13.2,0,0,0,0-.01,.01-.55-.88-1.33-2.26-1.76-3.57H2.01s1.6,4.17,3.34,6.43c0,0,0,0,0,0,5.6,8.04,15.03,13.17,25.53,12.82,1.47-.05,2.91-.21,4.31-.46,.03,0,.06-.01,.09-.02l-.02-.92Z"/>
  </g>
</svg>